<?xml version="1.0" encoding="utf-8" standalone="no"?>
<!DOCTYPE svg PUBLIC "-//W3C//DTD SVG 1.1//EN"
  "http://www.w3.org/Graphics/SVG/1.1/DTD/svg11.dtd">
<svg xmlns:xlink="http://www.w3.org/1999/xlink" width="630.649688pt" height="487.020797pt" viewBox="0 0 630.649688 487.020797" xmlns="http://www.w3.org/2000/svg" version="1.1">
 <metadata>
  <rdf:RDF xmlns:dc="http://purl.org/dc/elements/1.1/" xmlns:cc="http://creativecommons.org/ns#" xmlns:rdf="http://www.w3.org/1999/02/22-rdf-syntax-ns#">
   <cc:Work>
    <dc:type rdf:resource="http://purl.org/dc/dcmitype/StillImage"/>
    <dc:date>2026-06-08T10:51:34.544248</dc:date>
    <dc:format>image/svg+xml</dc:format>
    <dc:creator>
     <cc:Agent>
      <dc:title>Matplotlib v3.9.2, https://matplotlib.org/</dc:title>
     </cc:Agent>
    </dc:creator>
   </cc:Work>
  </rdf:RDF>
 </metadata>
 <defs>
  <style type="text/css">*{stroke-linejoin: round; stroke-linecap: butt}</style>
 </defs>
 <g id="figure_1">
  <g id="patch_1">
   <path d="M 0 487.020797 
L 630.649688 487.020797 
L 630.649688 0 
L 0 0 
z
" style="fill: #ffffff"/>
  </g>
  <g id="axes_1">
   <g id="patch_2">
    <path d="M 58.274063 436.882984 
L 619.314063 436.882984 
L 619.314063 12.138984 
L 58.274063 12.138984 
z
" style="fill: #ffffff"/>
   </g>
   <g id="PolyCollection_1">
    <defs>
     <path id="mdb7655d04a" d="M 58.274063 -474.881813 
L 58.274063 -61.321709 
L 60.15045 -68.680536 
L 62.026838 -76.033748 
L 63.903226 -83.375726 
L 65.779614 -90.700855 
L 67.656002 -98.003518 
L 69.53239 -105.278099 
L 71.408778 -112.518981 
L 73.285166 -119.720547 
L 75.161554 -126.877182 
L 77.037942 -133.983269 
L 78.91433 -141.031867 
L 80.790718 -148.00186 
L 82.667106 -154.863533 
L 84.543494 -161.587049 
L 86.419882 -168.142571 
L 88.29627 -174.500265 
L 90.172658 -180.630294 
L 92.049046 -186.502821 
L 93.925434 -192.08801 
L 95.801822 -197.356025 
L 97.67821 -202.277701 
L 99.554598 -206.853442 
L 101.430986 -211.124216 
L 103.307374 -215.133932 
L 105.183761 -218.926496 
L 107.060149 -222.545818 
L 108.936537 -226.035804 
L 110.812925 -229.440363 
L 112.689313 -232.803403 
L 114.565701 -236.168831 
L 116.442089 -239.580548 
L 118.318477 -243.057238 
L 120.194865 -246.535487 
L 122.071253 -249.940814 
L 123.947641 -253.243342 
L 125.824029 -256.434456 
L 127.700417 -259.505678 
L 129.576805 -262.448524 
L 131.453193 -265.254516 
L 133.329581 -267.91517 
L 135.205969 -270.422007 
L 137.082357 -272.767834 
L 138.958745 -274.95636 
L 140.835133 -276.996776 
L 142.711521 -278.898312 
L 144.587909 -280.670202 
L 146.464297 -282.321677 
L 148.340685 -283.861969 
L 150.217073 -285.300309 
L 152.09346 -286.645929 
L 153.969848 -287.908062 
L 155.846236 -289.096093 
L 157.722624 -290.223964 
L 159.599012 -291.310839 
L 161.4754 -292.376166 
L 163.351788 -293.439391 
L 165.228176 -294.519963 
L 167.104564 -295.63733 
L 168.980952 -296.81094 
L 170.85734 -298.06024 
L 172.733728 -299.404678 
L 174.610116 -300.863673 
L 176.486504 -302.440568 
L 178.362892 -304.095916 
L 180.23928 -305.783231 
L 182.115668 -307.456025 
L 183.992056 -309.069005 
L 185.868444 -310.598259 
L 187.744832 -312.03837 
L 189.62122 -313.384532 
L 191.497608 -314.631941 
L 193.373996 -315.77579 
L 195.250384 -316.812774 
L 197.126772 -317.749744 
L 199.003159 -318.597764 
L 200.879547 -319.36791 
L 202.755935 -320.07126 
L 204.632323 -320.71889 
L 206.508711 -321.321877 
L 208.385099 -321.891298 
L 210.261487 -322.438229 
L 212.137875 -322.973748 
L 214.014263 -323.508664 
L 215.890651 -324.048109 
L 217.767039 -324.591787 
L 219.643427 -325.139187 
L 221.519815 -325.689796 
L 223.396203 -326.2431 
L 225.272591 -326.798588 
L 227.148979 -327.355747 
L 229.025367 -327.914063 
L 230.901755 -328.473025 
L 232.778143 -329.03212 
L 234.654531 -329.590835 
L 236.530919 -330.148658 
L 238.407307 -330.705075 
L 240.283695 -331.259575 
L 242.160083 -331.811644 
L 244.036471 -332.360771 
L 245.912858 -332.906441 
L 247.789246 -333.448144 
L 249.665634 -333.985365 
L 251.542022 -334.517593 
L 253.41841 -335.044492 
L 255.294798 -335.566694 
L 257.171186 -336.08516 
L 259.047574 -336.600851 
L 260.923962 -337.114728 
L 262.80035 -337.627753 
L 264.676738 -338.140886 
L 266.553126 -338.65509 
L 268.429514 -339.171325 
L 270.305902 -339.690553 
L 272.18229 -340.213735 
L 274.058678 -340.741831 
L 275.935066 -341.275804 
L 277.811454 -341.816615 
L 279.687842 -342.365225 
L 281.56423 -342.922594 
L 283.440618 -343.489685 
L 285.317006 -344.067459 
L 287.193394 -344.656876 
L 289.069782 -345.258899 
L 290.94617 -345.874451 
L 292.822557 -346.500988 
L 294.698945 -347.129684 
L 296.575333 -347.751056 
L 298.451721 -348.355616 
L 300.328109 -348.933879 
L 302.204497 -349.47636 
L 304.080885 -349.973572 
L 305.957273 -350.416031 
L 307.833661 -350.794255 
L 309.710049 -351.102887 
L 311.586437 -351.348443 
L 313.462825 -351.539554 
L 315.339213 -351.684857 
L 317.215601 -351.792984 
L 319.091989 -351.872571 
L 320.968377 -351.932251 
L 322.844765 -351.980658 
L 324.721153 -352.026427 
L 326.597541 -352.078192 
L 328.473929 -352.144586 
L 330.350317 -352.233761 
L 332.226705 -352.348004 
L 334.103093 -352.485703 
L 335.979481 -352.645174 
L 337.855869 -352.824734 
L 339.732256 -353.022701 
L 341.608644 -353.23739 
L 343.485032 -353.46712 
L 345.36142 -353.710206 
L 347.237808 -353.964966 
L 349.114196 -354.229717 
L 350.990584 -354.502775 
L 352.866972 -354.782458 
L 354.74336 -355.067082 
L 356.619748 -355.354964 
L 358.496136 -355.644421 
L 360.372524 -355.933771 
L 362.248912 -356.221329 
L 364.1253 -356.505412 
L 366.001688 -356.784338 
L 367.878076 -357.056424 
L 369.754464 -357.320345 
L 371.630852 -357.57607 
L 373.50724 -357.823859 
L 375.383628 -358.063972 
L 377.260016 -358.296671 
L 379.136404 -358.522216 
L 381.012792 -358.740867 
L 382.88918 -358.952885 
L 384.765568 -359.15853 
L 386.641955 -359.358063 
L 388.518343 -359.551796 
L 390.394731 -359.740549 
L 392.271119 -359.925419 
L 394.147507 -360.107504 
L 396.023895 -360.287904 
L 397.900283 -360.46772 
L 399.776671 -360.648051 
L 401.653059 -360.829997 
L 403.529447 -361.014657 
L 405.405835 -361.203132 
L 407.282223 -361.396506 
L 409.158611 -361.59537 
L 411.034999 -361.799689 
L 412.911387 -362.009389 
L 414.787775 -362.224397 
L 416.664163 -362.44464 
L 418.540551 -362.670045 
L 420.416939 -362.900537 
L 422.293327 -363.136043 
L 424.169715 -363.376491 
L 426.046103 -363.621803 
L 427.922491 -363.868907 
L 429.798879 -364.10591 
L 431.675267 -364.319305 
L 433.551654 -364.496624 
L 435.428042 -364.637433 
L 437.30443 -364.749064 
L 439.180818 -364.838982 
L 441.057206 -364.914648 
L 442.933594 -364.983525 
L 444.809982 -365.053075 
L 446.68637 -365.130021 
L 448.562758 -365.21548 
L 450.439146 -365.308011 
L 452.315534 -365.406162 
L 454.191922 -365.508477 
L 456.06831 -365.613503 
L 457.944698 -365.719785 
L 459.821086 -365.825869 
L 461.697474 -365.930302 
L 463.573862 -366.031629 
L 465.45025 -366.128457 
L 467.326638 -366.220935 
L 469.203026 -366.310821 
L 471.079414 -366.39995 
L 472.955802 -366.490157 
L 474.83219 -366.583276 
L 476.708578 -366.681142 
L 478.584966 -366.785591 
L 480.461353 -366.898456 
L 482.337741 -367.021572 
L 484.214129 -367.156769 
L 486.090517 -367.304004 
L 487.966905 -367.458724 
L 489.843293 -367.615711 
L 491.719681 -367.769744 
L 493.596069 -367.915606 
L 495.472457 -368.048178 
L 497.348845 -368.165413 
L 499.225233 -368.268814 
L 501.101621 -368.360084 
L 502.978009 -368.440921 
L 504.854397 -368.513112 
L 506.730785 -368.578941 
L 508.607173 -368.640884 
L 510.483561 -368.701417 
L 512.359949 -368.763014 
L 514.236337 -368.82815 
L 516.112725 -368.899302 
L 517.989113 -368.978945 
L 519.865501 -369.069554 
L 521.741889 -369.173603 
L 523.618277 -369.293378 
L 525.494665 -369.427658 
L 527.371052 -369.572166 
L 529.24744 -369.722518 
L 531.123828 -369.874333 
L 533.000216 -370.02323 
L 534.876604 -370.164826 
L 536.752992 -370.29474 
L 538.62938 -370.40859 
L 540.505768 -370.501993 
L 542.382156 -370.570593 
L 544.258544 -370.613246 
L 546.134932 -370.635203 
L 548.01132 -370.64247 
L 549.887708 -370.641054 
L 551.764096 -370.63696 
L 553.640484 -370.636196 
L 555.516872 -370.644767 
L 557.39326 -370.668653 
L 559.269648 -370.709456 
L 561.146036 -370.759595 
L 563.022424 -370.810337 
L 564.898812 -370.852947 
L 566.7752 -370.878689 
L 568.651588 -370.878828 
L 570.527976 -370.844631 
L 572.404364 -370.767361 
L 574.280751 -370.638285 
L 576.157139 -370.448666 
L 578.033527 -370.189771 
L 579.909915 -369.852864 
L 581.786303 -369.42921 
L 583.662691 -368.910075 
L 585.539079 -368.286723 
L 587.415467 -367.55042 
L 589.291855 -366.692431 
L 591.168243 -365.70402 
L 593.044631 -364.576454 
L 594.921019 -363.300996 
L 596.797407 -361.868913 
L 598.673795 -360.271469 
L 600.550183 -358.499929 
L 602.426571 -356.545559 
L 604.302959 -354.399623 
L 606.179347 -352.053387 
L 608.055735 -349.498116 
L 609.932123 -346.725074 
L 611.808511 -343.725527 
L 613.684899 -340.490741 
L 615.561287 -337.011979 
L 617.437675 -333.280507 
L 619.314063 -329.287591 
L 619.314063 -474.881813 
L 619.314063 -474.881813 
L 617.437675 -474.881813 
L 615.561287 -474.881813 
L 613.684899 -474.881813 
L 611.808511 -474.881813 
L 609.932123 -474.881813 
L 608.055735 -474.881813 
L 606.179347 -474.881813 
L 604.302959 -474.881813 
L 602.426571 -474.881813 
L 600.550183 -474.881813 
L 598.673795 -474.881813 
L 596.797407 -474.881813 
L 594.921019 -474.881813 
L 593.044631 -474.881813 
L 591.168243 -474.881813 
L 589.291855 -474.881813 
L 587.415467 -474.881813 
L 585.539079 -474.881813 
L 583.662691 -474.881813 
L 581.786303 -474.881813 
L 579.909915 -474.881813 
L 578.033527 -474.881813 
L 576.157139 -474.881813 
L 574.280751 -474.881813 
L 572.404364 -474.881813 
L 570.527976 -474.881813 
L 568.651588 -474.881813 
L 566.7752 -474.881813 
L 564.898812 -474.881813 
L 563.022424 -474.881813 
L 561.146036 -474.881813 
L 559.269648 -474.881813 
L 557.39326 -474.881813 
L 555.516872 -474.881813 
L 553.640484 -474.881813 
L 551.764096 -474.881813 
L 549.887708 -474.881813 
L 548.01132 -474.881813 
L 546.134932 -474.881813 
L 544.258544 -474.881813 
L 542.382156 -474.881813 
L 540.505768 -474.881813 
L 538.62938 -474.881813 
L 536.752992 -474.881813 
L 534.876604 -474.881813 
L 533.000216 -474.881813 
L 531.123828 -474.881813 
L 529.24744 -474.881813 
L 527.371052 -474.881813 
L 525.494665 -474.881813 
L 523.618277 -474.881813 
L 521.741889 -474.881813 
L 519.865501 -474.881813 
L 517.989113 -474.881813 
L 516.112725 -474.881813 
L 514.236337 -474.881813 
L 512.359949 -474.881813 
L 510.483561 -474.881813 
L 508.607173 -474.881813 
L 506.730785 -474.881813 
L 504.854397 -474.881813 
L 502.978009 -474.881813 
L 501.101621 -474.881813 
L 499.225233 -474.881813 
L 497.348845 -474.881813 
L 495.472457 -474.881813 
L 493.596069 -474.881813 
L 491.719681 -474.881813 
L 489.843293 -474.881813 
L 487.966905 -474.881813 
L 486.090517 -474.881813 
L 484.214129 -474.881813 
L 482.337741 -474.881813 
L 480.461353 -474.881813 
L 478.584966 -474.881813 
L 476.708578 -474.881813 
L 474.83219 -474.881813 
L 472.955802 -474.881813 
L 471.079414 -474.881813 
L 469.203026 -474.881813 
L 467.326638 -474.881813 
L 465.45025 -474.881813 
L 463.573862 -474.881813 
L 461.697474 -474.881813 
L 459.821086 -474.881813 
L 457.944698 -474.881813 
L 456.06831 -474.881813 
L 454.191922 -474.881813 
L 452.315534 -474.881813 
L 450.439146 -474.881813 
L 448.562758 -474.881813 
L 446.68637 -474.881813 
L 444.809982 -474.881813 
L 442.933594 -474.881813 
L 441.057206 -474.881813 
L 439.180818 -474.881813 
L 437.30443 -474.881813 
L 435.428042 -474.881813 
L 433.551654 -474.881813 
L 431.675267 -474.881813 
L 429.798879 -474.881813 
L 427.922491 -474.881813 
L 426.046103 -474.881813 
L 424.169715 -474.881813 
L 422.293327 -474.881813 
L 420.416939 -474.881813 
L 418.540551 -474.881813 
L 416.664163 -474.881813 
L 414.787775 -474.881813 
L 412.911387 -474.881813 
L 411.034999 -474.881813 
L 409.158611 -474.881813 
L 407.282223 -474.881813 
L 405.405835 -474.881813 
L 403.529447 -474.881813 
L 401.653059 -474.881813 
L 399.776671 -474.881813 
L 397.900283 -474.881813 
L 396.023895 -474.881813 
L 394.147507 -474.881813 
L 392.271119 -474.881813 
L 390.394731 -474.881813 
L 388.518343 -474.881813 
L 386.641955 -474.881813 
L 384.765568 -474.881813 
L 382.88918 -474.881813 
L 381.012792 -474.881813 
L 379.136404 -474.881813 
L 377.260016 -474.881813 
L 375.383628 -474.881813 
L 373.50724 -474.881813 
L 371.630852 -474.881813 
L 369.754464 -474.881813 
L 367.878076 -474.881813 
L 366.001688 -474.881813 
L 364.1253 -474.881813 
L 362.248912 -474.881813 
L 360.372524 -474.881813 
L 358.496136 -474.881813 
L 356.619748 -474.881813 
L 354.74336 -474.881813 
L 352.866972 -474.881813 
L 350.990584 -474.881813 
L 349.114196 -474.881813 
L 347.237808 -474.881813 
L 345.36142 -474.881813 
L 343.485032 -474.881813 
L 341.608644 -474.881813 
L 339.732256 -474.881813 
L 337.855869 -474.881813 
L 335.979481 -474.881813 
L 334.103093 -474.881813 
L 332.226705 -474.881813 
L 330.350317 -474.881813 
L 328.473929 -474.881813 
L 326.597541 -474.881813 
L 324.721153 -474.881813 
L 322.844765 -474.881813 
L 320.968377 -474.881813 
L 319.091989 -474.881813 
L 317.215601 -474.881813 
L 315.339213 -474.881813 
L 313.462825 -474.881813 
L 311.586437 -474.881813 
L 309.710049 -474.881813 
L 307.833661 -474.881813 
L 305.957273 -474.881813 
L 304.080885 -474.881813 
L 302.204497 -474.881813 
L 300.328109 -474.881813 
L 298.451721 -474.881813 
L 296.575333 -474.881813 
L 294.698945 -474.881813 
L 292.822557 -474.881813 
L 290.94617 -474.881813 
L 289.069782 -474.881813 
L 287.193394 -474.881813 
L 285.317006 -474.881813 
L 283.440618 -474.881813 
L 281.56423 -474.881813 
L 279.687842 -474.881813 
L 277.811454 -474.881813 
L 275.935066 -474.881813 
L 274.058678 -474.881813 
L 272.18229 -474.881813 
L 270.305902 -474.881813 
L 268.429514 -474.881813 
L 266.553126 -474.881813 
L 264.676738 -474.881813 
L 262.80035 -474.881813 
L 260.923962 -474.881813 
L 259.047574 -474.881813 
L 257.171186 -474.881813 
L 255.294798 -474.881813 
L 253.41841 -474.881813 
L 251.542022 -474.881813 
L 249.665634 -474.881813 
L 247.789246 -474.881813 
L 245.912858 -474.881813 
L 244.036471 -474.881813 
L 242.160083 -474.881813 
L 240.283695 -474.881813 
L 238.407307 -474.881813 
L 236.530919 -474.881813 
L 234.654531 -474.881813 
L 232.778143 -474.881813 
L 230.901755 -474.881813 
L 229.025367 -474.881813 
L 227.148979 -474.881813 
L 225.272591 -474.881813 
L 223.396203 -474.881813 
L 221.519815 -474.881813 
L 219.643427 -474.881813 
L 217.767039 -474.881813 
L 215.890651 -474.881813 
L 214.014263 -474.881813 
L 212.137875 -474.881813 
L 210.261487 -474.881813 
L 208.385099 -474.881813 
L 206.508711 -474.881813 
L 204.632323 -474.881813 
L 202.755935 -474.881813 
L 200.879547 -474.881813 
L 199.003159 -474.881813 
L 197.126772 -474.881813 
L 195.250384 -474.881813 
L 193.373996 -474.881813 
L 191.497608 -474.881813 
L 189.62122 -474.881813 
L 187.744832 -474.881813 
L 185.868444 -474.881813 
L 183.992056 -474.881813 
L 182.115668 -474.881813 
L 180.23928 -474.881813 
L 178.362892 -474.881813 
L 176.486504 -474.881813 
L 174.610116 -474.881813 
L 172.733728 -474.881813 
L 170.85734 -474.881813 
L 168.980952 -474.881813 
L 167.104564 -474.881813 
L 165.228176 -474.881813 
L 163.351788 -474.881813 
L 161.4754 -474.881813 
L 159.599012 -474.881813 
L 157.722624 -474.881813 
L 155.846236 -474.881813 
L 153.969848 -474.881813 
L 152.09346 -474.881813 
L 150.217073 -474.881813 
L 148.340685 -474.881813 
L 146.464297 -474.881813 
L 144.587909 -474.881813 
L 142.711521 -474.881813 
L 140.835133 -474.881813 
L 138.958745 -474.881813 
L 137.082357 -474.881813 
L 135.205969 -474.881813 
L 133.329581 -474.881813 
L 131.453193 -474.881813 
L 129.576805 -474.881813 
L 127.700417 -474.881813 
L 125.824029 -474.881813 
L 123.947641 -474.881813 
L 122.071253 -474.881813 
L 120.194865 -474.881813 
L 118.318477 -474.881813 
L 116.442089 -474.881813 
L 114.565701 -474.881813 
L 112.689313 -474.881813 
L 110.812925 -474.881813 
L 108.936537 -474.881813 
L 107.060149 -474.881813 
L 105.183761 -474.881813 
L 103.307374 -474.881813 
L 101.430986 -474.881813 
L 99.554598 -474.881813 
L 97.67821 -474.881813 
L 95.801822 -474.881813 
L 93.925434 -474.881813 
L 92.049046 -474.881813 
L 90.172658 -474.881813 
L 88.29627 -474.881813 
L 86.419882 -474.881813 
L 84.543494 -474.881813 
L 82.667106 -474.881813 
L 80.790718 -474.881813 
L 78.91433 -474.881813 
L 77.037942 -474.881813 
L 75.161554 -474.881813 
L 73.285166 -474.881813 
L 71.408778 -474.881813 
L 69.53239 -474.881813 
L 67.656002 -474.881813 
L 65.779614 -474.881813 
L 63.903226 -474.881813 
L 62.026838 -474.881813 
L 60.15045 -474.881813 
L 58.274063 -474.881813 
z
" style="stroke: #1f77b4; stroke-opacity: 0.2"/>
    </defs>
    <g clip-path="url(#p1349593435)">
     <use xlink:href="#mdb7655d04a" x="0" y="487.020797" style="fill: #1f77b4; fill-opacity: 0.2; stroke: #1f77b4; stroke-opacity: 0.2"/>
    </g>
   </g>
   <g id="PolyCollection_2">
    <defs>
     <path id="mdcd01747f7" d="M 58.274063 -61.321709 
L 58.274063 -50.137813 
L 60.15045 -50.137813 
L 62.026838 -50.137813 
L 63.903226 -50.137813 
L 65.779614 -50.137813 
L 67.656002 -50.137813 
L 69.53239 -50.137813 
L 71.408778 -50.137813 
L 73.285166 -50.137813 
L 75.161554 -50.137813 
L 77.037942 -50.137813 
L 78.91433 -50.137813 
L 80.790718 -50.137813 
L 82.667106 -50.137813 
L 84.543494 -50.137813 
L 86.419882 -50.137813 
L 88.29627 -50.137813 
L 90.172658 -50.137813 
L 92.049046 -50.137813 
L 93.925434 -50.137813 
L 95.801822 -50.137813 
L 97.67821 -50.137813 
L 99.554598 -50.137813 
L 101.430986 -50.137813 
L 103.307374 -50.137813 
L 105.183761 -50.137813 
L 107.060149 -50.137813 
L 108.936537 -50.137813 
L 110.812925 -50.137813 
L 112.689313 -50.137813 
L 114.565701 -50.137813 
L 116.442089 -50.137813 
L 118.318477 -50.137813 
L 120.194865 -50.137813 
L 122.071253 -50.137813 
L 123.947641 -50.137813 
L 125.824029 -50.137813 
L 127.700417 -50.137813 
L 129.576805 -50.137813 
L 131.453193 -50.137813 
L 133.329581 -50.137813 
L 135.205969 -50.137813 
L 137.082357 -50.137813 
L 138.958745 -50.137813 
L 140.835133 -50.137813 
L 142.711521 -50.137813 
L 144.587909 -50.137813 
L 146.464297 -50.137813 
L 148.340685 -50.137813 
L 150.217073 -50.137813 
L 152.09346 -50.137813 
L 153.969848 -50.137813 
L 155.846236 -50.137813 
L 157.722624 -50.137813 
L 159.599012 -50.137813 
L 161.4754 -50.137813 
L 163.351788 -50.137813 
L 165.228176 -50.137813 
L 167.104564 -50.137813 
L 168.980952 -50.137813 
L 170.85734 -50.137813 
L 172.733728 -50.137813 
L 174.610116 -50.137813 
L 176.486504 -50.137813 
L 178.362892 -50.137813 
L 180.23928 -50.137813 
L 182.115668 -50.137813 
L 183.992056 -50.137813 
L 185.868444 -50.137813 
L 187.744832 -50.137813 
L 189.62122 -50.137813 
L 191.497608 -50.137813 
L 193.373996 -50.137813 
L 195.250384 -50.137813 
L 197.126772 -50.137813 
L 199.003159 -50.137813 
L 200.879547 -50.137813 
L 202.755935 -50.137813 
L 204.632323 -50.137813 
L 206.508711 -50.137813 
L 208.385099 -50.137813 
L 210.261487 -50.137813 
L 212.137875 -50.137813 
L 214.014263 -50.137813 
L 215.890651 -50.137813 
L 217.767039 -50.137813 
L 219.643427 -50.137813 
L 221.519815 -50.137813 
L 223.396203 -50.137813 
L 225.272591 -50.137813 
L 227.148979 -50.137813 
L 229.025367 -50.137813 
L 230.901755 -50.137813 
L 232.778143 -50.137813 
L 234.654531 -50.137813 
L 236.530919 -50.137813 
L 238.407307 -50.137813 
L 240.283695 -50.137813 
L 242.160083 -50.137813 
L 244.036471 -50.137813 
L 245.912858 -50.137813 
L 247.789246 -50.137813 
L 249.665634 -50.137813 
L 251.542022 -50.137813 
L 253.41841 -50.137813 
L 255.294798 -50.137813 
L 257.171186 -50.137813 
L 259.047574 -50.137813 
L 260.923962 -50.137813 
L 262.80035 -50.137813 
L 264.676738 -50.137813 
L 266.553126 -50.137813 
L 268.429514 -50.137813 
L 270.305902 -50.137813 
L 272.18229 -50.137813 
L 274.058678 -50.137813 
L 275.935066 -50.137813 
L 277.811454 -50.137813 
L 279.687842 -50.137813 
L 281.56423 -50.137813 
L 283.440618 -50.137813 
L 285.317006 -50.137813 
L 287.193394 -50.137813 
L 289.069782 -50.137813 
L 290.94617 -50.137813 
L 292.822557 -50.137813 
L 294.698945 -50.137813 
L 296.575333 -50.137813 
L 298.451721 -50.137813 
L 300.328109 -50.137813 
L 302.204497 -50.137813 
L 304.080885 -50.137813 
L 305.957273 -50.137813 
L 307.833661 -50.137813 
L 309.710049 -50.137813 
L 311.586437 -50.137813 
L 313.462825 -50.137813 
L 315.339213 -50.137813 
L 317.215601 -50.137813 
L 319.091989 -50.137813 
L 320.968377 -50.137813 
L 322.844765 -50.137813 
L 324.721153 -50.137813 
L 326.597541 -50.137813 
L 328.473929 -50.137813 
L 330.350317 -50.137813 
L 332.226705 -50.137813 
L 334.103093 -50.137813 
L 335.979481 -50.137813 
L 337.855869 -50.137813 
L 339.732256 -50.137813 
L 341.608644 -50.137813 
L 343.485032 -50.137813 
L 345.36142 -50.137813 
L 347.237808 -50.137813 
L 349.114196 -50.137813 
L 350.990584 -50.137813 
L 352.866972 -50.137813 
L 354.74336 -50.137813 
L 356.619748 -50.137813 
L 358.496136 -50.137813 
L 360.372524 -50.137813 
L 362.248912 -50.137813 
L 364.1253 -50.137813 
L 366.001688 -50.137813 
L 367.878076 -50.137813 
L 369.754464 -50.137813 
L 371.630852 -50.137813 
L 373.50724 -50.137813 
L 375.383628 -50.137813 
L 377.260016 -50.137813 
L 379.136404 -50.137813 
L 381.012792 -50.137813 
L 382.88918 -50.137813 
L 384.765568 -50.137813 
L 386.641955 -50.137813 
L 388.518343 -50.137813 
L 390.394731 -50.137813 
L 392.271119 -50.137813 
L 394.147507 -50.137813 
L 396.023895 -50.137813 
L 397.900283 -50.137813 
L 399.776671 -50.137813 
L 401.653059 -50.137813 
L 403.529447 -50.137813 
L 405.405835 -50.137813 
L 407.282223 -50.137813 
L 409.158611 -50.137813 
L 411.034999 -50.137813 
L 412.911387 -50.137813 
L 414.787775 -50.137813 
L 416.664163 -50.137813 
L 418.540551 -50.137813 
L 420.416939 -50.137813 
L 422.293327 -50.137813 
L 424.169715 -50.137813 
L 426.046103 -50.137813 
L 427.922491 -50.137813 
L 429.798879 -50.137813 
L 431.675267 -50.137813 
L 433.551654 -50.137813 
L 435.428042 -50.137813 
L 437.30443 -50.137813 
L 439.180818 -50.137813 
L 441.057206 -50.137813 
L 442.933594 -50.137813 
L 444.809982 -50.137813 
L 446.68637 -50.137813 
L 448.562758 -50.137813 
L 450.439146 -50.137813 
L 452.315534 -50.137813 
L 454.191922 -50.137813 
L 456.06831 -50.137813 
L 457.944698 -50.137813 
L 459.821086 -50.137813 
L 461.697474 -50.137813 
L 463.573862 -50.137813 
L 465.45025 -50.137813 
L 467.326638 -50.137813 
L 469.203026 -50.137813 
L 471.079414 -50.137813 
L 472.955802 -50.137813 
L 474.83219 -50.137813 
L 476.708578 -50.137813 
L 478.584966 -50.137813 
L 480.461353 -50.137813 
L 482.337741 -50.137813 
L 484.214129 -50.137813 
L 486.090517 -50.137813 
L 487.966905 -50.137813 
L 489.843293 -50.137813 
L 491.719681 -50.137813 
L 493.596069 -50.137813 
L 495.472457 -50.137813 
L 497.348845 -50.137813 
L 499.225233 -50.137813 
L 501.101621 -50.137813 
L 502.978009 -50.137813 
L 504.854397 -50.137813 
L 506.730785 -50.137813 
L 508.607173 -50.137813 
L 510.483561 -50.137813 
L 512.359949 -50.137813 
L 514.236337 -50.137813 
L 516.112725 -50.137813 
L 517.989113 -50.137813 
L 519.865501 -50.137813 
L 521.741889 -50.137813 
L 523.618277 -50.137813 
L 525.494665 -50.137813 
L 527.371052 -50.137813 
L 529.24744 -50.137813 
L 531.123828 -50.137813 
L 533.000216 -50.137813 
L 534.876604 -50.137813 
L 536.752992 -50.137813 
L 538.62938 -50.137813 
L 540.505768 -50.137813 
L 542.382156 -50.137813 
L 544.258544 -50.137813 
L 546.134932 -50.137813 
L 548.01132 -50.137813 
L 549.887708 -50.137813 
L 551.764096 -50.137813 
L 553.640484 -50.137813 
L 555.516872 -50.137813 
L 557.39326 -50.137813 
L 559.269648 -50.137813 
L 561.146036 -50.137813 
L 563.022424 -50.137813 
L 564.898812 -50.137813 
L 566.7752 -50.137813 
L 568.651588 -50.137813 
L 570.527976 -50.137813 
L 572.404364 -50.137813 
L 574.280751 -50.137813 
L 576.157139 -50.137813 
L 578.033527 -50.137813 
L 579.909915 -50.137813 
L 581.786303 -50.137813 
L 583.662691 -50.137813 
L 585.539079 -50.137813 
L 587.415467 -50.137813 
L 589.291855 -50.137813 
L 591.168243 -50.137813 
L 593.044631 -50.137813 
L 594.921019 -50.137813 
L 596.797407 -50.137813 
L 598.673795 -50.137813 
L 600.550183 -50.137813 
L 602.426571 -50.137813 
L 604.302959 -50.137813 
L 606.179347 -50.137813 
L 608.055735 -50.137813 
L 609.932123 -50.137813 
L 611.808511 -50.137813 
L 613.684899 -50.137813 
L 615.561287 -50.137813 
L 617.437675 -50.137813 
L 619.314063 -50.137813 
L 619.314063 -329.287591 
L 619.314063 -329.287591 
L 617.437675 -333.280507 
L 615.561287 -337.011979 
L 613.684899 -340.490741 
L 611.808511 -343.725527 
L 609.932123 -346.725074 
L 608.055735 -349.498116 
L 606.179347 -352.053387 
L 604.302959 -354.399623 
L 602.426571 -356.545559 
L 600.550183 -358.499929 
L 598.673795 -360.271469 
L 596.797407 -361.868913 
L 594.921019 -363.300996 
L 593.044631 -364.576454 
L 591.168243 -365.70402 
L 589.291855 -366.692431 
L 587.415467 -367.55042 
L 585.539079 -368.286723 
L 583.662691 -368.910075 
L 581.786303 -369.42921 
L 579.909915 -369.852864 
L 578.033527 -370.189771 
L 576.157139 -370.448666 
L 574.280751 -370.638285 
L 572.404364 -370.767361 
L 570.527976 -370.844631 
L 568.651588 -370.878828 
L 566.7752 -370.878689 
L 564.898812 -370.852947 
L 563.022424 -370.810337 
L 561.146036 -370.759595 
L 559.269648 -370.709456 
L 557.39326 -370.668653 
L 555.516872 -370.644767 
L 553.640484 -370.636196 
L 551.764096 -370.63696 
L 549.887708 -370.641054 
L 548.01132 -370.64247 
L 546.134932 -370.635203 
L 544.258544 -370.613246 
L 542.382156 -370.570593 
L 540.505768 -370.501993 
L 538.62938 -370.40859 
L 536.752992 -370.29474 
L 534.876604 -370.164826 
L 533.000216 -370.02323 
L 531.123828 -369.874333 
L 529.24744 -369.722518 
L 527.371052 -369.572166 
L 525.494665 -369.427658 
L 523.618277 -369.293378 
L 521.741889 -369.173603 
L 519.865501 -369.069554 
L 517.989113 -368.978945 
L 516.112725 -368.899302 
L 514.236337 -368.82815 
L 512.359949 -368.763014 
L 510.483561 -368.701417 
L 508.607173 -368.640884 
L 506.730785 -368.578941 
L 504.854397 -368.513112 
L 502.978009 -368.440921 
L 501.101621 -368.360084 
L 499.225233 -368.268814 
L 497.348845 -368.165413 
L 495.472457 -368.048178 
L 493.596069 -367.915606 
L 491.719681 -367.769744 
L 489.843293 -367.615711 
L 487.966905 -367.458724 
L 486.090517 -367.304004 
L 484.214129 -367.156769 
L 482.337741 -367.021572 
L 480.461353 -366.898456 
L 478.584966 -366.785591 
L 476.708578 -366.681142 
L 474.83219 -366.583276 
L 472.955802 -366.490157 
L 471.079414 -366.39995 
L 469.203026 -366.310821 
L 467.326638 -366.220935 
L 465.45025 -366.128457 
L 463.573862 -366.031629 
L 461.697474 -365.930302 
L 459.821086 -365.825869 
L 457.944698 -365.719785 
L 456.06831 -365.613503 
L 454.191922 -365.508477 
L 452.315534 -365.406162 
L 450.439146 -365.308011 
L 448.562758 -365.21548 
L 446.68637 -365.130021 
L 444.809982 -365.053075 
L 442.933594 -364.983525 
L 441.057206 -364.914648 
L 439.180818 -364.838982 
L 437.30443 -364.749064 
L 435.428042 -364.637433 
L 433.551654 -364.496624 
L 431.675267 -364.319305 
L 429.798879 -364.10591 
L 427.922491 -363.868907 
L 426.046103 -363.621803 
L 424.169715 -363.376491 
L 422.293327 -363.136043 
L 420.416939 -362.900537 
L 418.540551 -362.670045 
L 416.664163 -362.44464 
L 414.787775 -362.224397 
L 412.911387 -362.009389 
L 411.034999 -361.799689 
L 409.158611 -361.59537 
L 407.282223 -361.396506 
L 405.405835 -361.203132 
L 403.529447 -361.014657 
L 401.653059 -360.829997 
L 399.776671 -360.648051 
L 397.900283 -360.46772 
L 396.023895 -360.287904 
L 394.147507 -360.107504 
L 392.271119 -359.925419 
L 390.394731 -359.740549 
L 388.518343 -359.551796 
L 386.641955 -359.358063 
L 384.765568 -359.15853 
L 382.88918 -358.952885 
L 381.012792 -358.740867 
L 379.136404 -358.522216 
L 377.260016 -358.296671 
L 375.383628 -358.063972 
L 373.50724 -357.823859 
L 371.630852 -357.57607 
L 369.754464 -357.320345 
L 367.878076 -357.056424 
L 366.001688 -356.784338 
L 364.1253 -356.505412 
L 362.248912 -356.221329 
L 360.372524 -355.933771 
L 358.496136 -355.644421 
L 356.619748 -355.354964 
L 354.74336 -355.067082 
L 352.866972 -354.782458 
L 350.990584 -354.502775 
L 349.114196 -354.229717 
L 347.237808 -353.964966 
L 345.36142 -353.710206 
L 343.485032 -353.46712 
L 341.608644 -353.23739 
L 339.732256 -353.022701 
L 337.855869 -352.824734 
L 335.979481 -352.645174 
L 334.103093 -352.485703 
L 332.226705 -352.348004 
L 330.350317 -352.233761 
L 328.473929 -352.144586 
L 326.597541 -352.078192 
L 324.721153 -352.026427 
L 322.844765 -351.980658 
L 320.968377 -351.932251 
L 319.091989 -351.872571 
L 317.215601 -351.792984 
L 315.339213 -351.684857 
L 313.462825 -351.539554 
L 311.586437 -351.348443 
L 309.710049 -351.102887 
L 307.833661 -350.794255 
L 305.957273 -350.416031 
L 304.080885 -349.973572 
L 302.204497 -349.47636 
L 300.328109 -348.933879 
L 298.451721 -348.355616 
L 296.575333 -347.751056 
L 294.698945 -347.129684 
L 292.822557 -346.500988 
L 290.94617 -345.874451 
L 289.069782 -345.258899 
L 287.193394 -344.656876 
L 285.317006 -344.067459 
L 283.440618 -343.489685 
L 281.56423 -342.922594 
L 279.687842 -342.365225 
L 277.811454 -341.816615 
L 275.935066 -341.275804 
L 274.058678 -340.741831 
L 272.18229 -340.213735 
L 270.305902 -339.690553 
L 268.429514 -339.171325 
L 266.553126 -338.65509 
L 264.676738 -338.140886 
L 262.80035 -337.627753 
L 260.923962 -337.114728 
L 259.047574 -336.600851 
L 257.171186 -336.08516 
L 255.294798 -335.566694 
L 253.41841 -335.044492 
L 251.542022 -334.517593 
L 249.665634 -333.985365 
L 247.789246 -333.448144 
L 245.912858 -332.906441 
L 244.036471 -332.360771 
L 242.160083 -331.811644 
L 240.283695 -331.259575 
L 238.407307 -330.705075 
L 236.530919 -330.148658 
L 234.654531 -329.590835 
L 232.778143 -329.03212 
L 230.901755 -328.473025 
L 229.025367 -327.914063 
L 227.148979 -327.355747 
L 225.272591 -326.798588 
L 223.396203 -326.2431 
L 221.519815 -325.689796 
L 219.643427 -325.139187 
L 217.767039 -324.591787 
L 215.890651 -324.048109 
L 214.014263 -323.508664 
L 212.137875 -322.973748 
L 210.261487 -322.438229 
L 208.385099 -321.891298 
L 206.508711 -321.321877 
L 204.632323 -320.71889 
L 202.755935 -320.07126 
L 200.879547 -319.36791 
L 199.003159 -318.597764 
L 197.126772 -317.749744 
L 195.250384 -316.812774 
L 193.373996 -315.77579 
L 191.497608 -314.631941 
L 189.62122 -313.384532 
L 187.744832 -312.03837 
L 185.868444 -310.598259 
L 183.992056 -309.069005 
L 182.115668 -307.456025 
L 180.23928 -305.783231 
L 178.362892 -304.095916 
L 176.486504 -302.440568 
L 174.610116 -300.863673 
L 172.733728 -299.404678 
L 170.85734 -298.06024 
L 168.980952 -296.81094 
L 167.104564 -295.63733 
L 165.228176 -294.519963 
L 163.351788 -293.439391 
L 161.4754 -292.376166 
L 159.599012 -291.310839 
L 157.722624 -290.223964 
L 155.846236 -289.096093 
L 153.969848 -287.908062 
L 152.09346 -286.645929 
L 150.217073 -285.300309 
L 148.340685 -283.861969 
L 146.464297 -282.321677 
L 144.587909 -280.670202 
L 142.711521 -278.898312 
L 140.835133 -276.996776 
L 138.958745 -274.95636 
L 137.082357 -272.767834 
L 135.205969 -270.422007 
L 133.329581 -267.91517 
L 131.453193 -265.254516 
L 129.576805 -262.448524 
L 127.700417 -259.505678 
L 125.824029 -256.434456 
L 123.947641 -253.243342 
L 122.071253 -249.940814 
L 120.194865 -246.535487 
L 118.318477 -243.057238 
L 116.442089 -239.580548 
L 114.565701 -236.168831 
L 112.689313 -232.803403 
L 110.812925 -229.440363 
L 108.936537 -226.035804 
L 107.060149 -222.545818 
L 105.183761 -218.926496 
L 103.307374 -215.133932 
L 101.430986 -211.124216 
L 99.554598 -206.853442 
L 97.67821 -202.277701 
L 95.801822 -197.356025 
L 93.925434 -192.08801 
L 92.049046 -186.502821 
L 90.172658 -180.630294 
L 88.29627 -174.500265 
L 86.419882 -168.142571 
L 84.543494 -161.587049 
L 82.667106 -154.863533 
L 80.790718 -148.00186 
L 78.91433 -141.031867 
L 77.037942 -133.983269 
L 75.161554 -126.877182 
L 73.285166 -119.720547 
L 71.408778 -112.518981 
L 69.53239 -105.278099 
L 67.656002 -98.003518 
L 65.779614 -90.700855 
L 63.903226 -83.375726 
L 62.026838 -76.033748 
L 60.15045 -68.680536 
L 58.274063 -61.321709 
z
" style="stroke: #1f77b4; stroke-opacity: 0.1"/>
    </defs>
    <g clip-path="url(#p1349593435)">
     <use xlink:href="#mdcd01747f7" x="0" y="487.020797" style="fill: #1f77b4; fill-opacity: 0.1; stroke: #1f77b4; stroke-opacity: 0.1"/>
    </g>
   </g>
   <g id="matplotlib.axis_1">
    <g id="xtick_1">
     <g id="line2d_1">
      <defs>
       <path id="mbd23e8e251" d="M 0 0 
L 0 3.5 
" style="stroke: #000000; stroke-width: 0.8"/>
      </defs>
      <g>
       <use xlink:href="#mbd23e8e251" x="58.274063" y="436.882984" style="stroke: #000000; stroke-width: 0.8"/>
      </g>
     </g>
     <g id="text_1">
      <!-- 1 -->
      <g transform="translate(54.138438 453.760953) scale(0.13 -0.13)">
       <defs>
        <path id="DejaVuSans-31" d="M 794 531 
L 1825 531 
L 1825 4091 
L 703 3866 
L 703 4441 
L 1819 4666 
L 2450 4666 
L 2450 531 
L 3481 531 
L 3481 0 
L 794 0 
L 794 531 
z
" transform="scale(0.015625)"/>
       </defs>
       <use xlink:href="#DejaVuSans-31"/>
      </g>
     </g>
    </g>
    <g id="xtick_2">
     <g id="line2d_2">
      <g>
       <use xlink:href="#mbd23e8e251" x="151.780729" y="436.882984" style="stroke: #000000; stroke-width: 0.8"/>
      </g>
     </g>
     <g id="text_2">
      <!-- 2 -->
      <g transform="translate(147.645104 453.760953) scale(0.13 -0.13)">
       <defs>
        <path id="DejaVuSans-32" d="M 1228 531 
L 3431 531 
L 3431 0 
L 469 0 
L 469 531 
Q 828 903 1448 1529 
Q 2069 2156 2228 2338 
Q 2531 2678 2651 2914 
Q 2772 3150 2772 3378 
Q 2772 3750 2511 3984 
Q 2250 4219 1831 4219 
Q 1534 4219 1204 4116 
Q 875 4013 500 3803 
L 500 4441 
Q 881 4594 1212 4672 
Q 1544 4750 1819 4750 
Q 2544 4750 2975 4387 
Q 3406 4025 3406 3419 
Q 3406 3131 3298 2873 
Q 3191 2616 2906 2266 
Q 2828 2175 2409 1742 
Q 1991 1309 1228 531 
z
" transform="scale(0.015625)"/>
       </defs>
       <use xlink:href="#DejaVuSans-32"/>
      </g>
     </g>
    </g>
    <g id="xtick_3">
     <g id="line2d_3">
      <g>
       <use xlink:href="#mbd23e8e251" x="245.287396" y="436.882984" style="stroke: #000000; stroke-width: 0.8"/>
      </g>
     </g>
     <g id="text_3">
      <!-- 3 -->
      <g transform="translate(241.151771 453.760953) scale(0.13 -0.13)">
       <defs>
        <path id="DejaVuSans-33" d="M 2597 2516 
Q 3050 2419 3304 2112 
Q 3559 1806 3559 1356 
Q 3559 666 3084 287 
Q 2609 -91 1734 -91 
Q 1441 -91 1130 -33 
Q 819 25 488 141 
L 488 750 
Q 750 597 1062 519 
Q 1375 441 1716 441 
Q 2309 441 2620 675 
Q 2931 909 2931 1356 
Q 2931 1769 2642 2001 
Q 2353 2234 1838 2234 
L 1294 2234 
L 1294 2753 
L 1863 2753 
Q 2328 2753 2575 2939 
Q 2822 3125 2822 3475 
Q 2822 3834 2567 4026 
Q 2313 4219 1838 4219 
Q 1578 4219 1281 4162 
Q 984 4106 628 3988 
L 628 4550 
Q 988 4650 1302 4700 
Q 1616 4750 1894 4750 
Q 2613 4750 3031 4423 
Q 3450 4097 3450 3541 
Q 3450 3153 3228 2886 
Q 3006 2619 2597 2516 
z
" transform="scale(0.015625)"/>
       </defs>
       <use xlink:href="#DejaVuSans-33"/>
      </g>
     </g>
    </g>
    <g id="xtick_4">
     <g id="line2d_4">
      <g>
       <use xlink:href="#mbd23e8e251" x="338.794063" y="436.882984" style="stroke: #000000; stroke-width: 0.8"/>
      </g>
     </g>
     <g id="text_4">
      <!-- 4 -->
      <g transform="translate(334.658438 453.760953) scale(0.13 -0.13)">
       <defs>
        <path id="DejaVuSans-34" d="M 2419 4116 
L 825 1625 
L 2419 1625 
L 2419 4116 
z
M 2253 4666 
L 3047 4666 
L 3047 1625 
L 3713 1625 
L 3713 1100 
L 3047 1100 
L 3047 0 
L 2419 0 
L 2419 1100 
L 313 1100 
L 313 1709 
L 2253 4666 
z
" transform="scale(0.015625)"/>
       </defs>
       <use xlink:href="#DejaVuSans-34"/>
      </g>
     </g>
    </g>
    <g id="xtick_5">
     <g id="line2d_5">
      <g>
       <use xlink:href="#mbd23e8e251" x="432.300729" y="436.882984" style="stroke: #000000; stroke-width: 0.8"/>
      </g>
     </g>
     <g id="text_5">
      <!-- 5 -->
      <g transform="translate(428.165104 453.760953) scale(0.13 -0.13)">
       <defs>
        <path id="DejaVuSans-35" d="M 691 4666 
L 3169 4666 
L 3169 4134 
L 1269 4134 
L 1269 2991 
Q 1406 3038 1543 3061 
Q 1681 3084 1819 3084 
Q 2600 3084 3056 2656 
Q 3513 2228 3513 1497 
Q 3513 744 3044 326 
Q 2575 -91 1722 -91 
Q 1428 -91 1123 -41 
Q 819 9 494 109 
L 494 744 
Q 775 591 1075 516 
Q 1375 441 1709 441 
Q 2250 441 2565 725 
Q 2881 1009 2881 1497 
Q 2881 1984 2565 2268 
Q 2250 2553 1709 2553 
Q 1456 2553 1204 2497 
Q 953 2441 691 2322 
L 691 4666 
z
" transform="scale(0.015625)"/>
       </defs>
       <use xlink:href="#DejaVuSans-35"/>
      </g>
     </g>
    </g>
    <g id="xtick_6">
     <g id="line2d_6">
      <g>
       <use xlink:href="#mbd23e8e251" x="525.807396" y="436.882984" style="stroke: #000000; stroke-width: 0.8"/>
      </g>
     </g>
     <g id="text_6">
      <!-- 6 -->
      <g transform="translate(521.671771 453.760953) scale(0.13 -0.13)">
       <defs>
        <path id="DejaVuSans-36" d="M 2113 2584 
Q 1688 2584 1439 2293 
Q 1191 2003 1191 1497 
Q 1191 994 1439 701 
Q 1688 409 2113 409 
Q 2538 409 2786 701 
Q 3034 994 3034 1497 
Q 3034 2003 2786 2293 
Q 2538 2584 2113 2584 
z
M 3366 4563 
L 3366 3988 
Q 3128 4100 2886 4159 
Q 2644 4219 2406 4219 
Q 1781 4219 1451 3797 
Q 1122 3375 1075 2522 
Q 1259 2794 1537 2939 
Q 1816 3084 2150 3084 
Q 2853 3084 3261 2657 
Q 3669 2231 3669 1497 
Q 3669 778 3244 343 
Q 2819 -91 2113 -91 
Q 1303 -91 875 529 
Q 447 1150 447 2328 
Q 447 3434 972 4092 
Q 1497 4750 2381 4750 
Q 2619 4750 2861 4703 
Q 3103 4656 3366 4563 
z
" transform="scale(0.015625)"/>
       </defs>
       <use xlink:href="#DejaVuSans-36"/>
      </g>
     </g>
    </g>
    <g id="xtick_7">
     <g id="line2d_7">
      <g>
       <use xlink:href="#mbd23e8e251" x="619.314063" y="436.882984" style="stroke: #000000; stroke-width: 0.8"/>
      </g>
     </g>
     <g id="text_7">
      <!-- 7 -->
      <g transform="translate(615.178438 453.760953) scale(0.13 -0.13)">
       <defs>
        <path id="DejaVuSans-37" d="M 525 4666 
L 3525 4666 
L 3525 4397 
L 1831 0 
L 1172 0 
L 2766 4134 
L 525 4134 
L 525 4666 
z
" transform="scale(0.015625)"/>
       </defs>
       <use xlink:href="#DejaVuSans-37"/>
      </g>
     </g>
    </g>
    <g id="text_8">
     <!-- Normalized Division Rate ($r_{\mathrm{max}} / r_0$) -->
     <g transform="translate(169.894063 475.661422) scale(0.2 -0.2)">
      <defs>
       <path id="DejaVuSans-4e" d="M 628 4666 
L 1478 4666 
L 3547 763 
L 3547 4666 
L 4159 4666 
L 4159 0 
L 3309 0 
L 1241 3903 
L 1241 0 
L 628 0 
L 628 4666 
z
" transform="scale(0.015625)"/>
       <path id="DejaVuSans-6f" d="M 1959 3097 
Q 1497 3097 1228 2736 
Q 959 2375 959 1747 
Q 959 1119 1226 758 
Q 1494 397 1959 397 
Q 2419 397 2687 759 
Q 2956 1122 2956 1747 
Q 2956 2369 2687 2733 
Q 2419 3097 1959 3097 
z
M 1959 3584 
Q 2709 3584 3137 3096 
Q 3566 2609 3566 1747 
Q 3566 888 3137 398 
Q 2709 -91 1959 -91 
Q 1206 -91 779 398 
Q 353 888 353 1747 
Q 353 2609 779 3096 
Q 1206 3584 1959 3584 
z
" transform="scale(0.015625)"/>
       <path id="DejaVuSans-72" d="M 2631 2963 
Q 2534 3019 2420 3045 
Q 2306 3072 2169 3072 
Q 1681 3072 1420 2755 
Q 1159 2438 1159 1844 
L 1159 0 
L 581 0 
L 581 3500 
L 1159 3500 
L 1159 2956 
Q 1341 3275 1631 3429 
Q 1922 3584 2338 3584 
Q 2397 3584 2469 3576 
Q 2541 3569 2628 3553 
L 2631 2963 
z
" transform="scale(0.015625)"/>
       <path id="DejaVuSans-6d" d="M 3328 2828 
Q 3544 3216 3844 3400 
Q 4144 3584 4550 3584 
Q 5097 3584 5394 3201 
Q 5691 2819 5691 2113 
L 5691 0 
L 5113 0 
L 5113 2094 
Q 5113 2597 4934 2840 
Q 4756 3084 4391 3084 
Q 3944 3084 3684 2787 
Q 3425 2491 3425 1978 
L 3425 0 
L 2847 0 
L 2847 2094 
Q 2847 2600 2669 2842 
Q 2491 3084 2119 3084 
Q 1678 3084 1418 2786 
Q 1159 2488 1159 1978 
L 1159 0 
L 581 0 
L 581 3500 
L 1159 3500 
L 1159 2956 
Q 1356 3278 1631 3431 
Q 1906 3584 2284 3584 
Q 2666 3584 2933 3390 
Q 3200 3197 3328 2828 
z
" transform="scale(0.015625)"/>
       <path id="DejaVuSans-61" d="M 2194 1759 
Q 1497 1759 1228 1600 
Q 959 1441 959 1056 
Q 959 750 1161 570 
Q 1363 391 1709 391 
Q 2188 391 2477 730 
Q 2766 1069 2766 1631 
L 2766 1759 
L 2194 1759 
z
M 3341 1997 
L 3341 0 
L 2766 0 
L 2766 531 
Q 2569 213 2275 61 
Q 1981 -91 1556 -91 
Q 1019 -91 701 211 
Q 384 513 384 1019 
Q 384 1609 779 1909 
Q 1175 2209 1959 2209 
L 2766 2209 
L 2766 2266 
Q 2766 2663 2505 2880 
Q 2244 3097 1772 3097 
Q 1472 3097 1187 3025 
Q 903 2953 641 2809 
L 641 3341 
Q 956 3463 1253 3523 
Q 1550 3584 1831 3584 
Q 2591 3584 2966 3190 
Q 3341 2797 3341 1997 
z
" transform="scale(0.015625)"/>
       <path id="DejaVuSans-6c" d="M 603 4863 
L 1178 4863 
L 1178 0 
L 603 0 
L 603 4863 
z
" transform="scale(0.015625)"/>
       <path id="DejaVuSans-69" d="M 603 3500 
L 1178 3500 
L 1178 0 
L 603 0 
L 603 3500 
z
M 603 4863 
L 1178 4863 
L 1178 4134 
L 603 4134 
L 603 4863 
z
" transform="scale(0.015625)"/>
       <path id="DejaVuSans-7a" d="M 353 3500 
L 3084 3500 
L 3084 2975 
L 922 459 
L 3084 459 
L 3084 0 
L 275 0 
L 275 525 
L 2438 3041 
L 353 3041 
L 353 3500 
z
" transform="scale(0.015625)"/>
       <path id="DejaVuSans-65" d="M 3597 1894 
L 3597 1613 
L 953 1613 
Q 991 1019 1311 708 
Q 1631 397 2203 397 
Q 2534 397 2845 478 
Q 3156 559 3463 722 
L 3463 178 
Q 3153 47 2828 -22 
Q 2503 -91 2169 -91 
Q 1331 -91 842 396 
Q 353 884 353 1716 
Q 353 2575 817 3079 
Q 1281 3584 2069 3584 
Q 2775 3584 3186 3129 
Q 3597 2675 3597 1894 
z
M 3022 2063 
Q 3016 2534 2758 2815 
Q 2500 3097 2075 3097 
Q 1594 3097 1305 2825 
Q 1016 2553 972 2059 
L 3022 2063 
z
" transform="scale(0.015625)"/>
       <path id="DejaVuSans-64" d="M 2906 2969 
L 2906 4863 
L 3481 4863 
L 3481 0 
L 2906 0 
L 2906 525 
Q 2725 213 2448 61 
Q 2172 -91 1784 -91 
Q 1150 -91 751 415 
Q 353 922 353 1747 
Q 353 2572 751 3078 
Q 1150 3584 1784 3584 
Q 2172 3584 2448 3432 
Q 2725 3281 2906 2969 
z
M 947 1747 
Q 947 1113 1208 752 
Q 1469 391 1925 391 
Q 2381 391 2643 752 
Q 2906 1113 2906 1747 
Q 2906 2381 2643 2742 
Q 2381 3103 1925 3103 
Q 1469 3103 1208 2742 
Q 947 2381 947 1747 
z
" transform="scale(0.015625)"/>
       <path id="DejaVuSans-20" transform="scale(0.015625)"/>
       <path id="DejaVuSans-44" d="M 1259 4147 
L 1259 519 
L 2022 519 
Q 2988 519 3436 956 
Q 3884 1394 3884 2338 
Q 3884 3275 3436 3711 
Q 2988 4147 2022 4147 
L 1259 4147 
z
M 628 4666 
L 1925 4666 
Q 3281 4666 3915 4102 
Q 4550 3538 4550 2338 
Q 4550 1131 3912 565 
Q 3275 0 1925 0 
L 628 0 
L 628 4666 
z
" transform="scale(0.015625)"/>
       <path id="DejaVuSans-76" d="M 191 3500 
L 800 3500 
L 1894 563 
L 2988 3500 
L 3597 3500 
L 2284 0 
L 1503 0 
L 191 3500 
z
" transform="scale(0.015625)"/>
       <path id="DejaVuSans-73" d="M 2834 3397 
L 2834 2853 
Q 2591 2978 2328 3040 
Q 2066 3103 1784 3103 
Q 1356 3103 1142 2972 
Q 928 2841 928 2578 
Q 928 2378 1081 2264 
Q 1234 2150 1697 2047 
L 1894 2003 
Q 2506 1872 2764 1633 
Q 3022 1394 3022 966 
Q 3022 478 2636 193 
Q 2250 -91 1575 -91 
Q 1294 -91 989 -36 
Q 684 19 347 128 
L 347 722 
Q 666 556 975 473 
Q 1284 391 1588 391 
Q 1994 391 2212 530 
Q 2431 669 2431 922 
Q 2431 1156 2273 1281 
Q 2116 1406 1581 1522 
L 1381 1569 
Q 847 1681 609 1914 
Q 372 2147 372 2553 
Q 372 3047 722 3315 
Q 1072 3584 1716 3584 
Q 2034 3584 2315 3537 
Q 2597 3491 2834 3397 
z
" transform="scale(0.015625)"/>
       <path id="DejaVuSans-6e" d="M 3513 2113 
L 3513 0 
L 2938 0 
L 2938 2094 
Q 2938 2591 2744 2837 
Q 2550 3084 2163 3084 
Q 1697 3084 1428 2787 
Q 1159 2491 1159 1978 
L 1159 0 
L 581 0 
L 581 3500 
L 1159 3500 
L 1159 2956 
Q 1366 3272 1645 3428 
Q 1925 3584 2291 3584 
Q 2894 3584 3203 3211 
Q 3513 2838 3513 2113 
z
" transform="scale(0.015625)"/>
       <path id="DejaVuSans-52" d="M 2841 2188 
Q 3044 2119 3236 1894 
Q 3428 1669 3622 1275 
L 4263 0 
L 3584 0 
L 2988 1197 
Q 2756 1666 2539 1819 
Q 2322 1972 1947 1972 
L 1259 1972 
L 1259 0 
L 628 0 
L 628 4666 
L 2053 4666 
Q 2853 4666 3247 4331 
Q 3641 3997 3641 3322 
Q 3641 2881 3436 2590 
Q 3231 2300 2841 2188 
z
M 1259 4147 
L 1259 2491 
L 2053 2491 
Q 2509 2491 2742 2702 
Q 2975 2913 2975 3322 
Q 2975 3731 2742 3939 
Q 2509 4147 2053 4147 
L 1259 4147 
z
" transform="scale(0.015625)"/>
       <path id="DejaVuSans-74" d="M 1172 4494 
L 1172 3500 
L 2356 3500 
L 2356 3053 
L 1172 3053 
L 1172 1153 
Q 1172 725 1289 603 
Q 1406 481 1766 481 
L 2356 481 
L 2356 0 
L 1766 0 
Q 1100 0 847 248 
Q 594 497 594 1153 
L 594 3053 
L 172 3053 
L 172 3500 
L 594 3500 
L 594 4494 
L 1172 4494 
z
" transform="scale(0.015625)"/>
       <path id="DejaVuSans-28" d="M 1984 4856 
Q 1566 4138 1362 3434 
Q 1159 2731 1159 2009 
Q 1159 1288 1364 580 
Q 1569 -128 1984 -844 
L 1484 -844 
Q 1016 -109 783 600 
Q 550 1309 550 2009 
Q 550 2706 781 3412 
Q 1013 4119 1484 4856 
L 1984 4856 
z
" transform="scale(0.015625)"/>
       <path id="DejaVuSans-Oblique-72" d="M 2853 2969 
Q 2766 3016 2653 3041 
Q 2541 3066 2413 3066 
Q 1953 3066 1609 2717 
Q 1266 2369 1153 1784 
L 800 0 
L 225 0 
L 909 3500 
L 1484 3500 
L 1375 2956 
Q 1603 3259 1920 3421 
Q 2238 3584 2597 3584 
Q 2691 3584 2781 3573 
Q 2872 3563 2963 3538 
L 2853 2969 
z
" transform="scale(0.015625)"/>
       <path id="DejaVuSans-78" d="M 3513 3500 
L 2247 1797 
L 3578 0 
L 2900 0 
L 1881 1375 
L 863 0 
L 184 0 
L 1544 1831 
L 300 3500 
L 978 3500 
L 1906 2253 
L 2834 3500 
L 3513 3500 
z
" transform="scale(0.015625)"/>
       <path id="DejaVuSans-2f" d="M 1625 4666 
L 2156 4666 
L 531 -594 
L 0 -594 
L 1625 4666 
z
" transform="scale(0.015625)"/>
       <path id="DejaVuSans-30" d="M 2034 4250 
Q 1547 4250 1301 3770 
Q 1056 3291 1056 2328 
Q 1056 1369 1301 889 
Q 1547 409 2034 409 
Q 2525 409 2770 889 
Q 3016 1369 3016 2328 
Q 3016 3291 2770 3770 
Q 2525 4250 2034 4250 
z
M 2034 4750 
Q 2819 4750 3233 4129 
Q 3647 3509 3647 2328 
Q 3647 1150 3233 529 
Q 2819 -91 2034 -91 
Q 1250 -91 836 529 
Q 422 1150 422 2328 
Q 422 3509 836 4129 
Q 1250 4750 2034 4750 
z
" transform="scale(0.015625)"/>
       <path id="DejaVuSans-29" d="M 513 4856 
L 1013 4856 
Q 1481 4119 1714 3412 
Q 1947 2706 1947 2009 
Q 1947 1309 1714 600 
Q 1481 -109 1013 -844 
L 513 -844 
Q 928 -128 1133 580 
Q 1338 1288 1338 2009 
Q 1338 2731 1133 3434 
Q 928 4138 513 4856 
z
" transform="scale(0.015625)"/>
      </defs>
      <use xlink:href="#DejaVuSans-4e" transform="translate(0 0.015625)"/>
      <use xlink:href="#DejaVuSans-6f" transform="translate(74.804688 0.015625)"/>
      <use xlink:href="#DejaVuSans-72" transform="translate(135.986328 0.015625)"/>
      <use xlink:href="#DejaVuSans-6d" transform="translate(177.099609 0.015625)"/>
      <use xlink:href="#DejaVuSans-61" transform="translate(274.511719 0.015625)"/>
      <use xlink:href="#DejaVuSans-6c" transform="translate(335.791016 0.015625)"/>
      <use xlink:href="#DejaVuSans-69" transform="translate(363.574219 0.015625)"/>
      <use xlink:href="#DejaVuSans-7a" transform="translate(391.357422 0.015625)"/>
      <use xlink:href="#DejaVuSans-65" transform="translate(443.847656 0.015625)"/>
      <use xlink:href="#DejaVuSans-64" transform="translate(505.371094 0.015625)"/>
      <use xlink:href="#DejaVuSans-20" transform="translate(568.847656 0.015625)"/>
      <use xlink:href="#DejaVuSans-44" transform="translate(600.634766 0.015625)"/>
      <use xlink:href="#DejaVuSans-69" transform="translate(677.636719 0.015625)"/>
      <use xlink:href="#DejaVuSans-76" transform="translate(705.419922 0.015625)"/>
      <use xlink:href="#DejaVuSans-69" transform="translate(764.599609 0.015625)"/>
      <use xlink:href="#DejaVuSans-73" transform="translate(792.382812 0.015625)"/>
      <use xlink:href="#DejaVuSans-69" transform="translate(844.482422 0.015625)"/>
      <use xlink:href="#DejaVuSans-6f" transform="translate(872.265625 0.015625)"/>
      <use xlink:href="#DejaVuSans-6e" transform="translate(933.447266 0.015625)"/>
      <use xlink:href="#DejaVuSans-20" transform="translate(996.826172 0.015625)"/>
      <use xlink:href="#DejaVuSans-52" transform="translate(1028.613281 0.015625)"/>
      <use xlink:href="#DejaVuSans-61" transform="translate(1098.095703 0.015625)"/>
      <use xlink:href="#DejaVuSans-74" transform="translate(1159.375 0.015625)"/>
      <use xlink:href="#DejaVuSans-65" transform="translate(1198.583984 0.015625)"/>
      <use xlink:href="#DejaVuSans-20" transform="translate(1260.107422 0.015625)"/>
      <use xlink:href="#DejaVuSans-28" transform="translate(1291.894531 0.015625)"/>
      <use xlink:href="#DejaVuSans-Oblique-72" transform="translate(1330.908203 0.015625)"/>
      <use xlink:href="#DejaVuSans-6d" transform="translate(1372.021484 -16.390625) scale(0.7)"/>
      <use xlink:href="#DejaVuSans-61" transform="translate(1440.209961 -16.390625) scale(0.7)"/>
      <use xlink:href="#DejaVuSans-78" transform="translate(1483.105469 -16.390625) scale(0.7)"/>
      <use xlink:href="#DejaVuSans-2f" transform="translate(1527.265625 0.015625)"/>
      <use xlink:href="#DejaVuSans-Oblique-72" transform="translate(1560.957031 0.015625)"/>
      <use xlink:href="#DejaVuSans-30" transform="translate(1602.070312 -16.390625) scale(0.7)"/>
      <use xlink:href="#DejaVuSans-29" transform="translate(1649.34082 0.015625)"/>
     </g>
    </g>
   </g>
   <g id="matplotlib.axis_2">
    <g id="ytick_1">
     <g id="line2d_8">
      <path d="M 58.274063 433.372703 
L 619.314063 433.372703 
" clip-path="url(#p1349593435)" style="fill: none; stroke-dasharray: 0.8,1.32; stroke-dashoffset: 0; stroke: #b0b0b0; stroke-opacity: 0.5; stroke-width: 0.8"/>
     </g>
     <g id="line2d_9">
      <defs>
       <path id="m4d7ef85a3f" d="M 0 0 
L -3.5 0 
" style="stroke: #000000; stroke-width: 0.8"/>
      </defs>
      <g>
       <use xlink:href="#m4d7ef85a3f" x="58.274063" y="433.372703" style="stroke: #000000; stroke-width: 0.8"/>
      </g>
     </g>
     <g id="text_9">
      <!-- 0.0 -->
      <g transform="translate(30.6 438.311688) scale(0.13 -0.13)">
       <defs>
        <path id="DejaVuSans-2e" d="M 684 794 
L 1344 794 
L 1344 0 
L 684 0 
L 684 794 
z
" transform="scale(0.015625)"/>
       </defs>
       <use xlink:href="#DejaVuSans-30"/>
       <use xlink:href="#DejaVuSans-2e" x="63.623047"/>
       <use xlink:href="#DejaVuSans-30" x="95.410156"/>
      </g>
     </g>
    </g>
    <g id="ytick_2">
     <g id="line2d_10">
      <path d="M 58.274063 363.167084 
L 619.314063 363.167084 
" clip-path="url(#p1349593435)" style="fill: none; stroke-dasharray: 0.8,1.32; stroke-dashoffset: 0; stroke: #b0b0b0; stroke-opacity: 0.5; stroke-width: 0.8"/>
     </g>
     <g id="line2d_11">
      <g>
       <use xlink:href="#m4d7ef85a3f" x="58.274063" y="363.167084" style="stroke: #000000; stroke-width: 0.8"/>
      </g>
     </g>
     <g id="text_10">
      <!-- 0.1 -->
      <g transform="translate(30.6 368.106068) scale(0.13 -0.13)">
       <use xlink:href="#DejaVuSans-30"/>
       <use xlink:href="#DejaVuSans-2e" x="63.623047"/>
       <use xlink:href="#DejaVuSans-31" x="95.410156"/>
      </g>
     </g>
    </g>
    <g id="ytick_3">
     <g id="line2d_12">
      <path d="M 58.274063 292.961464 
L 619.314063 292.961464 
" clip-path="url(#p1349593435)" style="fill: none; stroke-dasharray: 0.8,1.32; stroke-dashoffset: 0; stroke: #b0b0b0; stroke-opacity: 0.5; stroke-width: 0.8"/>
     </g>
     <g id="line2d_13">
      <g>
       <use xlink:href="#m4d7ef85a3f" x="58.274063" y="292.961464" style="stroke: #000000; stroke-width: 0.8"/>
      </g>
     </g>
     <g id="text_11">
      <!-- 0.2 -->
      <g transform="translate(30.6 297.900448) scale(0.13 -0.13)">
       <use xlink:href="#DejaVuSans-30"/>
       <use xlink:href="#DejaVuSans-2e" x="63.623047"/>
       <use xlink:href="#DejaVuSans-32" x="95.410156"/>
      </g>
     </g>
    </g>
    <g id="ytick_4">
     <g id="line2d_14">
      <path d="M 58.274063 222.755844 
L 619.314063 222.755844 
" clip-path="url(#p1349593435)" style="fill: none; stroke-dasharray: 0.8,1.32; stroke-dashoffset: 0; stroke: #b0b0b0; stroke-opacity: 0.5; stroke-width: 0.8"/>
     </g>
     <g id="line2d_15">
      <g>
       <use xlink:href="#m4d7ef85a3f" x="58.274063" y="222.755844" style="stroke: #000000; stroke-width: 0.8"/>
      </g>
     </g>
     <g id="text_12">
      <!-- 0.3 -->
      <g transform="translate(30.6 227.694828) scale(0.13 -0.13)">
       <use xlink:href="#DejaVuSans-30"/>
       <use xlink:href="#DejaVuSans-2e" x="63.623047"/>
       <use xlink:href="#DejaVuSans-33" x="95.410156"/>
      </g>
     </g>
    </g>
    <g id="ytick_5">
     <g id="line2d_16">
      <path d="M 58.274063 152.550224 
L 619.314063 152.550224 
" clip-path="url(#p1349593435)" style="fill: none; stroke-dasharray: 0.8,1.32; stroke-dashoffset: 0; stroke: #b0b0b0; stroke-opacity: 0.5; stroke-width: 0.8"/>
     </g>
     <g id="line2d_17">
      <g>
       <use xlink:href="#m4d7ef85a3f" x="58.274063" y="152.550224" style="stroke: #000000; stroke-width: 0.8"/>
      </g>
     </g>
     <g id="text_13">
      <!-- 0.4 -->
      <g transform="translate(30.6 157.489208) scale(0.13 -0.13)">
       <use xlink:href="#DejaVuSans-30"/>
       <use xlink:href="#DejaVuSans-2e" x="63.623047"/>
       <use xlink:href="#DejaVuSans-34" x="95.410156"/>
      </g>
     </g>
    </g>
    <g id="ytick_6">
     <g id="line2d_18">
      <path d="M 58.274063 82.344604 
L 619.314063 82.344604 
" clip-path="url(#p1349593435)" style="fill: none; stroke-dasharray: 0.8,1.32; stroke-dashoffset: 0; stroke: #b0b0b0; stroke-opacity: 0.5; stroke-width: 0.8"/>
     </g>
     <g id="line2d_19">
      <g>
       <use xlink:href="#m4d7ef85a3f" x="58.274063" y="82.344604" style="stroke: #000000; stroke-width: 0.8"/>
      </g>
     </g>
     <g id="text_14">
      <!-- 0.5 -->
      <g transform="translate(30.6 87.283589) scale(0.13 -0.13)">
       <use xlink:href="#DejaVuSans-30"/>
       <use xlink:href="#DejaVuSans-2e" x="63.623047"/>
       <use xlink:href="#DejaVuSans-35" x="95.410156"/>
      </g>
     </g>
    </g>
    <g id="ytick_7">
     <g id="line2d_20">
      <path d="M 58.274063 12.138984 
L 619.314063 12.138984 
" clip-path="url(#p1349593435)" style="fill: none; stroke-dasharray: 0.8,1.32; stroke-dashoffset: 0; stroke: #b0b0b0; stroke-opacity: 0.5; stroke-width: 0.8"/>
     </g>
     <g id="line2d_21">
      <g>
       <use xlink:href="#m4d7ef85a3f" x="58.274063" y="12.138984" style="stroke: #000000; stroke-width: 0.8"/>
      </g>
     </g>
     <g id="text_15">
      <!-- 0.6 -->
      <g transform="translate(30.6 17.077969) scale(0.13 -0.13)">
       <use xlink:href="#DejaVuSans-30"/>
       <use xlink:href="#DejaVuSans-2e" x="63.623047"/>
       <use xlink:href="#DejaVuSans-36" x="95.410156"/>
      </g>
     </g>
    </g>
    <g id="text_16">
     <!-- Death Probability ($P_{\mathrm{death}}$) -->
     <g transform="translate(22.4 348.710984) rotate(-90) scale(0.2 -0.2)">
      <defs>
       <path id="DejaVuSans-68" d="M 3513 2113 
L 3513 0 
L 2938 0 
L 2938 2094 
Q 2938 2591 2744 2837 
Q 2550 3084 2163 3084 
Q 1697 3084 1428 2787 
Q 1159 2491 1159 1978 
L 1159 0 
L 581 0 
L 581 4863 
L 1159 4863 
L 1159 2956 
Q 1366 3272 1645 3428 
Q 1925 3584 2291 3584 
Q 2894 3584 3203 3211 
Q 3513 2838 3513 2113 
z
" transform="scale(0.015625)"/>
       <path id="DejaVuSans-50" d="M 1259 4147 
L 1259 2394 
L 2053 2394 
Q 2494 2394 2734 2622 
Q 2975 2850 2975 3272 
Q 2975 3691 2734 3919 
Q 2494 4147 2053 4147 
L 1259 4147 
z
M 628 4666 
L 2053 4666 
Q 2838 4666 3239 4311 
Q 3641 3956 3641 3272 
Q 3641 2581 3239 2228 
Q 2838 1875 2053 1875 
L 1259 1875 
L 1259 0 
L 628 0 
L 628 4666 
z
" transform="scale(0.015625)"/>
       <path id="DejaVuSans-62" d="M 3116 1747 
Q 3116 2381 2855 2742 
Q 2594 3103 2138 3103 
Q 1681 3103 1420 2742 
Q 1159 2381 1159 1747 
Q 1159 1113 1420 752 
Q 1681 391 2138 391 
Q 2594 391 2855 752 
Q 3116 1113 3116 1747 
z
M 1159 2969 
Q 1341 3281 1617 3432 
Q 1894 3584 2278 3584 
Q 2916 3584 3314 3078 
Q 3713 2572 3713 1747 
Q 3713 922 3314 415 
Q 2916 -91 2278 -91 
Q 1894 -91 1617 61 
Q 1341 213 1159 525 
L 1159 0 
L 581 0 
L 581 4863 
L 1159 4863 
L 1159 2969 
z
" transform="scale(0.015625)"/>
       <path id="DejaVuSans-79" d="M 2059 -325 
Q 1816 -950 1584 -1140 
Q 1353 -1331 966 -1331 
L 506 -1331 
L 506 -850 
L 844 -850 
Q 1081 -850 1212 -737 
Q 1344 -625 1503 -206 
L 1606 56 
L 191 3500 
L 800 3500 
L 1894 763 
L 2988 3500 
L 3597 3500 
L 2059 -325 
z
" transform="scale(0.015625)"/>
       <path id="DejaVuSans-Oblique-50" d="M 1081 4666 
L 2541 4666 
Q 3178 4666 3512 4369 
Q 3847 4072 3847 3500 
Q 3847 2731 3353 2303 
Q 2859 1875 1966 1875 
L 1172 1875 
L 806 0 
L 172 0 
L 1081 4666 
z
M 1613 4147 
L 1275 2394 
L 2069 2394 
Q 2606 2394 2893 2669 
Q 3181 2944 3181 3456 
Q 3181 3784 2986 3965 
Q 2791 4147 2438 4147 
L 1613 4147 
z
" transform="scale(0.015625)"/>
      </defs>
      <use xlink:href="#DejaVuSans-44" transform="translate(0 0.015625)"/>
      <use xlink:href="#DejaVuSans-65" transform="translate(77.001953 0.015625)"/>
      <use xlink:href="#DejaVuSans-61" transform="translate(138.525391 0.015625)"/>
      <use xlink:href="#DejaVuSans-74" transform="translate(199.804688 0.015625)"/>
      <use xlink:href="#DejaVuSans-68" transform="translate(239.013672 0.015625)"/>
      <use xlink:href="#DejaVuSans-20" transform="translate(302.392578 0.015625)"/>
      <use xlink:href="#DejaVuSans-50" transform="translate(334.179688 0.015625)"/>
      <use xlink:href="#DejaVuSans-72" transform="translate(394.482422 0.015625)"/>
      <use xlink:href="#DejaVuSans-6f" transform="translate(435.595703 0.015625)"/>
      <use xlink:href="#DejaVuSans-62" transform="translate(496.777344 0.015625)"/>
      <use xlink:href="#DejaVuSans-61" transform="translate(560.253906 0.015625)"/>
      <use xlink:href="#DejaVuSans-62" transform="translate(621.533203 0.015625)"/>
      <use xlink:href="#DejaVuSans-69" transform="translate(685.009766 0.015625)"/>
      <use xlink:href="#DejaVuSans-6c" transform="translate(712.792969 0.015625)"/>
      <use xlink:href="#DejaVuSans-69" transform="translate(740.576172 0.015625)"/>
      <use xlink:href="#DejaVuSans-74" transform="translate(768.359375 0.015625)"/>
      <use xlink:href="#DejaVuSans-79" transform="translate(807.568359 0.015625)"/>
      <use xlink:href="#DejaVuSans-20" transform="translate(866.748047 0.015625)"/>
      <use xlink:href="#DejaVuSans-28" transform="translate(898.535156 0.015625)"/>
      <use xlink:href="#DejaVuSans-Oblique-50" transform="translate(937.548828 0.015625)"/>
      <use xlink:href="#DejaVuSans-64" transform="translate(997.851562 -16.390625) scale(0.7)"/>
      <use xlink:href="#DejaVuSans-65" transform="translate(1042.285156 -16.390625) scale(0.7)"/>
      <use xlink:href="#DejaVuSans-61" transform="translate(1085.351562 -16.390625) scale(0.7)"/>
      <use xlink:href="#DejaVuSans-74" transform="translate(1128.24707 -16.390625) scale(0.7)"/>
      <use xlink:href="#DejaVuSans-68" transform="translate(1155.693359 -16.390625) scale(0.7)"/>
      <use xlink:href="#DejaVuSans-29" transform="translate(1202.792969 0.015625)"/>
     </g>
    </g>
   </g>
   <g id="patch_3">
    <path d="M 58.274063 436.882984 
L 58.274063 12.138984 
" style="fill: none; stroke: #000000; stroke-width: 0.8; stroke-linejoin: miter; stroke-linecap: square"/>
   </g>
   <g id="patch_4">
    <path d="M 58.274063 436.882984 
L 619.314063 436.882984 
" style="fill: none; stroke: #000000; stroke-width: 0.8; stroke-linejoin: miter; stroke-linecap: square"/>
   </g>
   <g id="line2d_22">
    <path d="M 58.274063 433.372703 
L 62.020573 419.849952 
L 65.767084 407.330433 
L 69.513595 395.706499 
L 73.260106 384.885369 
L 77.006617 374.786651 
L 80.753128 365.34034 
L 84.499638 356.485193 
L 88.246149 348.1674 
L 91.99266 340.339489 
L 95.739171 332.959421 
L 99.485682 325.989832 
L 104.16882 317.804662 
L 108.851959 310.151572 
L 113.535098 302.980314 
L 118.218236 296.246772 
L 122.901375 289.912059 
L 127.584513 283.941758 
L 132.267652 278.305304 
L 136.95079 272.975458 
L 142.570557 266.950251 
L 148.190323 261.294248 
L 153.810089 255.974523 
L 159.429855 250.961951 
L 165.049622 246.230677 
L 170.669388 241.757668 
L 177.225782 236.838235 
L 183.782176 232.213337 
L 190.33857 227.85729 
L 196.894964 223.747315 
L 204.387986 219.325602 
L 211.881007 215.17204 
L 219.374029 211.262956 
L 227.803679 207.131448 
L 236.233328 203.256526 
L 244.662977 199.615007 
L 254.029254 195.8178 
L 263.395532 192.258787 
L 273.698436 188.593129 
L 284.001341 185.164082 
L 295.240874 181.667151 
L 306.480406 178.40026 
L 318.656567 175.095302 
L 331.769355 171.781368 
L 344.882143 168.696075 
L 358.931558 165.618201 
L 373.917602 162.568119 
L 389.840273 159.563051 
L 406.699572 156.61724 
L 424.495498 153.74217 
L 443.228052 150.946833 
L 462.897234 148.238002 
L 483.503044 145.620509 
L 505.982109 142.992378 
L 529.397802 140.477264 
L 554.68675 137.985205 
L 581.848954 135.536062 
L 610.884413 133.145723 
L 619.314063 132.491476 
L 619.314063 132.491476 
" clip-path="url(#p1349593435)" style="fill: none; stroke-dasharray: 9.25,4; stroke-dashoffset: 0; stroke: #0000ff; stroke-opacity: 0.6; stroke-width: 2.5"/>
   </g>
   <g id="text_17">
    <g id="patch_5">
     <path d="M 161.051458 58.417107 
L 329.523333 58.417107 
Q 336.123333 58.417107 336.123333 51.817107 
L 336.123333 30.525232 
Q 336.123333 23.925232 329.523333 23.925232 
L 161.051458 23.925232 
Q 154.451458 23.925232 154.451458 30.525232 
L 154.451458 51.817107 
Q 154.451458 58.417107 161.051458 58.417107 
z
" style="fill: #ffffff; opacity: 0.9; stroke: #1f77b4; stroke-linejoin: miter"/>
    </g>
    <!-- Tumor Collapse -->
    <g transform="translate(161.051458 47.241794) scale(0.22 -0.22)">
     <defs>
      <path id="DejaVuSans-54" d="M -19 4666 
L 3928 4666 
L 3928 4134 
L 2272 4134 
L 2272 0 
L 1638 0 
L 1638 4134 
L -19 4134 
L -19 4666 
z
" transform="scale(0.015625)"/>
      <path id="DejaVuSans-75" d="M 544 1381 
L 544 3500 
L 1119 3500 
L 1119 1403 
Q 1119 906 1312 657 
Q 1506 409 1894 409 
Q 2359 409 2629 706 
Q 2900 1003 2900 1516 
L 2900 3500 
L 3475 3500 
L 3475 0 
L 2900 0 
L 2900 538 
Q 2691 219 2414 64 
Q 2138 -91 1772 -91 
Q 1169 -91 856 284 
Q 544 659 544 1381 
z
M 1991 3584 
L 1991 3584 
z
" transform="scale(0.015625)"/>
      <path id="DejaVuSans-43" d="M 4122 4306 
L 4122 3641 
Q 3803 3938 3442 4084 
Q 3081 4231 2675 4231 
Q 1875 4231 1450 3742 
Q 1025 3253 1025 2328 
Q 1025 1406 1450 917 
Q 1875 428 2675 428 
Q 3081 428 3442 575 
Q 3803 722 4122 1019 
L 4122 359 
Q 3791 134 3420 21 
Q 3050 -91 2638 -91 
Q 1578 -91 968 557 
Q 359 1206 359 2328 
Q 359 3453 968 4101 
Q 1578 4750 2638 4750 
Q 3056 4750 3426 4639 
Q 3797 4528 4122 4306 
z
" transform="scale(0.015625)"/>
      <path id="DejaVuSans-70" d="M 1159 525 
L 1159 -1331 
L 581 -1331 
L 581 3500 
L 1159 3500 
L 1159 2969 
Q 1341 3281 1617 3432 
Q 1894 3584 2278 3584 
Q 2916 3584 3314 3078 
Q 3713 2572 3713 1747 
Q 3713 922 3314 415 
Q 2916 -91 2278 -91 
Q 1894 -91 1617 61 
Q 1341 213 1159 525 
z
M 3116 1747 
Q 3116 2381 2855 2742 
Q 2594 3103 2138 3103 
Q 1681 3103 1420 2742 
Q 1159 2381 1159 1747 
Q 1159 1113 1420 752 
Q 1681 391 2138 391 
Q 2594 391 2855 752 
Q 3116 1113 3116 1747 
z
" transform="scale(0.015625)"/>
     </defs>
     <use xlink:href="#DejaVuSans-54"/>
     <use xlink:href="#DejaVuSans-75" x="45.958984"/>
     <use xlink:href="#DejaVuSans-6d" x="109.337891"/>
     <use xlink:href="#DejaVuSans-6f" x="206.75"/>
     <use xlink:href="#DejaVuSans-72" x="267.931641"/>
     <use xlink:href="#DejaVuSans-20" x="309.044922"/>
     <use xlink:href="#DejaVuSans-43" x="340.832031"/>
     <use xlink:href="#DejaVuSans-6f" x="410.65625"/>
     <use xlink:href="#DejaVuSans-6c" x="471.837891"/>
     <use xlink:href="#DejaVuSans-6c" x="499.621094"/>
     <use xlink:href="#DejaVuSans-61" x="527.404297"/>
     <use xlink:href="#DejaVuSans-70" x="588.683594"/>
     <use xlink:href="#DejaVuSans-73" x="652.160156"/>
     <use xlink:href="#DejaVuSans-65" x="704.259766"/>
    </g>
   </g>
   <g id="text_18">
    <g id="patch_6">
     <path d="M 151.153177 339.239586 
L 339.421615 339.239586 
Q 346.021615 339.239586 346.021615 332.639586 
L 346.021615 311.347711 
Q 346.021615 304.747711 339.421615 304.747711 
L 151.153177 304.747711 
Q 144.553177 304.747711 144.553177 311.347711 
L 144.553177 332.639586 
Q 144.553177 339.239586 151.153177 339.239586 
z
" style="fill: #ffffff; opacity: 0.9; stroke: #1f77b4; stroke-linejoin: miter"/>
    </g>
    <!-- Tumor Expansion -->
    <g transform="translate(151.153177 328.064274) scale(0.22 -0.22)">
     <defs>
      <path id="DejaVuSans-45" d="M 628 4666 
L 3578 4666 
L 3578 4134 
L 1259 4134 
L 1259 2753 
L 3481 2753 
L 3481 2222 
L 1259 2222 
L 1259 531 
L 3634 531 
L 3634 0 
L 628 0 
L 628 4666 
z
" transform="scale(0.015625)"/>
     </defs>
     <use xlink:href="#DejaVuSans-54"/>
     <use xlink:href="#DejaVuSans-75" x="45.958984"/>
     <use xlink:href="#DejaVuSans-6d" x="109.337891"/>
     <use xlink:href="#DejaVuSans-6f" x="206.75"/>
     <use xlink:href="#DejaVuSans-72" x="267.931641"/>
     <use xlink:href="#DejaVuSans-20" x="309.044922"/>
     <use xlink:href="#DejaVuSans-45" x="340.832031"/>
     <use xlink:href="#DejaVuSans-78" x="404.015625"/>
     <use xlink:href="#DejaVuSans-70" x="463.195312"/>
     <use xlink:href="#DejaVuSans-61" x="526.671875"/>
     <use xlink:href="#DejaVuSans-6e" x="587.951172"/>
     <use xlink:href="#DejaVuSans-73" x="651.330078"/>
     <use xlink:href="#DejaVuSans-69" x="703.429688"/>
     <use xlink:href="#DejaVuSans-6f" x="731.212891"/>
     <use xlink:href="#DejaVuSans-6e" x="792.394531"/>
    </g>
   </g>
   <g id="line2d_23">
    <path d="M 58.274063 425.699088 
L 71.408778 374.501816 
L 78.91433 345.98893 
L 84.543494 325.433748 
L 88.29627 312.520532 
L 92.049046 300.517976 
L 95.801822 289.664772 
L 97.67821 284.743096 
L 99.554598 280.167355 
L 103.307374 271.886865 
L 107.060149 264.474979 
L 112.689313 254.217394 
L 118.318477 243.963558 
L 122.071253 237.079983 
L 125.824029 230.586341 
L 129.576805 224.572272 
L 133.329581 219.105627 
L 137.082357 214.252963 
L 140.835133 210.024021 
L 144.587909 206.350595 
L 148.340685 203.158828 
L 152.09346 200.374867 
L 155.846236 197.924704 
L 161.4754 194.644631 
L 167.104564 191.383467 
L 170.85734 188.960557 
L 174.610116 186.157124 
L 178.362892 182.924881 
L 183.992056 177.951791 
L 187.744832 174.982427 
L 191.497608 172.388856 
L 195.250384 170.208023 
L 199.003159 168.423033 
L 202.755935 166.949537 
L 206.508711 165.69892 
L 214.014263 163.512133 
L 230.901755 158.547772 
L 251.542022 152.503203 
L 285.317006 142.953338 
L 294.698945 139.891112 
L 300.328109 138.086918 
L 304.080885 137.047225 
L 307.833661 136.226542 
L 311.586437 135.672354 
L 315.339213 135.33594 
L 320.968377 135.088546 
L 330.350317 134.787036 
L 335.979481 134.375623 
L 343.485032 133.553677 
L 352.866972 132.238339 
L 373.50724 129.196938 
L 384.765568 127.862267 
L 399.776671 126.372746 
L 412.911387 125.011408 
L 426.046103 123.398994 
L 431.675267 122.701491 
L 437.30443 122.271732 
L 480.461353 120.122341 
L 489.843293 119.405086 
L 497.348845 118.855384 
L 506.730785 118.441856 
L 521.741889 117.847193 
L 531.123828 117.146463 
L 538.62938 116.612207 
L 544.258544 116.407551 
L 570.527976 116.176166 
L 574.280751 116.382512 
L 578.033527 116.831026 
L 581.786303 117.591587 
L 585.539079 118.734074 
L 587.415467 119.470377 
L 589.291855 120.328366 
L 591.168243 121.316777 
L 593.044631 122.444343 
L 594.921019 123.7198 
L 596.797407 125.151884 
L 598.673795 126.749328 
L 600.550183 128.520868 
L 602.426571 130.475238 
L 604.302959 132.621174 
L 606.179347 134.96741 
L 608.055735 137.522681 
L 609.932123 140.295723 
L 611.808511 143.29527 
L 613.684899 146.530056 
L 615.561287 150.008818 
L 617.437675 153.740289 
L 619.314063 157.733206 
L 619.314063 157.733206 
" clip-path="url(#p1349593435)" style="fill: none; stroke: #000080; stroke-width: 3; stroke-linecap: square"/>
   </g>
   <g id="legend_1">
    <g id="patch_7">
     <path d="M 331.44625 427.882984 
L 606.714063 427.882984 
Q 610.314063 427.882984 610.314063 424.282984 
L 610.314063 346.821109 
Q 610.314063 343.221109 606.714063 343.221109 
L 331.44625 343.221109 
Q 327.84625 343.221109 327.84625 346.821109 
L 327.84625 424.282984 
Q 327.84625 427.882984 331.44625 427.882984 
z
" style="fill: #ffffff; opacity: 0.9; stroke: #cccccc; stroke-linejoin: miter"/>
    </g>
    <g id="line2d_24">
     <path d="M 335.04625 357.798297 
L 353.04625 357.798297 
L 371.04625 357.798297 
" style="fill: none; stroke-dasharray: 9.25,4; stroke-dashoffset: 0; stroke: #0000ff; stroke-opacity: 0.6; stroke-width: 2.5"/>
    </g>
    <g id="text_19">
     <!-- Theory (Solid boundary) -->
     <g transform="translate(385.44625 364.098297) scale(0.18 -0.18)">
      <defs>
       <path id="DejaVuSans-53" d="M 3425 4513 
L 3425 3897 
Q 3066 4069 2747 4153 
Q 2428 4238 2131 4238 
Q 1616 4238 1336 4038 
Q 1056 3838 1056 3469 
Q 1056 3159 1242 3001 
Q 1428 2844 1947 2747 
L 2328 2669 
Q 3034 2534 3370 2195 
Q 3706 1856 3706 1288 
Q 3706 609 3251 259 
Q 2797 -91 1919 -91 
Q 1588 -91 1214 -16 
Q 841 59 441 206 
L 441 856 
Q 825 641 1194 531 
Q 1563 422 1919 422 
Q 2459 422 2753 634 
Q 3047 847 3047 1241 
Q 3047 1584 2836 1778 
Q 2625 1972 2144 2069 
L 1759 2144 
Q 1053 2284 737 2584 
Q 422 2884 422 3419 
Q 422 4038 858 4394 
Q 1294 4750 2059 4750 
Q 2388 4750 2728 4690 
Q 3069 4631 3425 4513 
z
" transform="scale(0.015625)"/>
      </defs>
      <use xlink:href="#DejaVuSans-54"/>
      <use xlink:href="#DejaVuSans-68" x="61.083984"/>
      <use xlink:href="#DejaVuSans-65" x="124.462891"/>
      <use xlink:href="#DejaVuSans-6f" x="185.986328"/>
      <use xlink:href="#DejaVuSans-72" x="247.167969"/>
      <use xlink:href="#DejaVuSans-79" x="288.28125"/>
      <use xlink:href="#DejaVuSans-20" x="347.460938"/>
      <use xlink:href="#DejaVuSans-28" x="379.248047"/>
      <use xlink:href="#DejaVuSans-53" x="418.261719"/>
      <use xlink:href="#DejaVuSans-6f" x="481.738281"/>
      <use xlink:href="#DejaVuSans-6c" x="542.919922"/>
      <use xlink:href="#DejaVuSans-69" x="570.703125"/>
      <use xlink:href="#DejaVuSans-64" x="598.486328"/>
      <use xlink:href="#DejaVuSans-20" x="661.962891"/>
      <use xlink:href="#DejaVuSans-62" x="693.75"/>
      <use xlink:href="#DejaVuSans-6f" x="757.226562"/>
      <use xlink:href="#DejaVuSans-75" x="818.408203"/>
      <use xlink:href="#DejaVuSans-6e" x="881.787109"/>
      <use xlink:href="#DejaVuSans-64" x="945.166016"/>
      <use xlink:href="#DejaVuSans-61" x="1008.642578"/>
      <use xlink:href="#DejaVuSans-72" x="1069.921875"/>
      <use xlink:href="#DejaVuSans-79" x="1111.035156"/>
      <use xlink:href="#DejaVuSans-29" x="1170.214844"/>
     </g>
    </g>
    <g id="line2d_25">
     <path d="M 335.04625 384.218922 
L 353.04625 384.218922 
L 371.04625 384.218922 
" style="fill: none; stroke: #000080; stroke-width: 3; stroke-linecap: square"/>
    </g>
    <g id="text_20">
     <!-- Solid Tumor (Sim.) -->
     <g transform="translate(385.44625 390.518922) scale(0.18 -0.18)">
      <use xlink:href="#DejaVuSans-53"/>
      <use xlink:href="#DejaVuSans-6f" x="63.476562"/>
      <use xlink:href="#DejaVuSans-6c" x="124.658203"/>
      <use xlink:href="#DejaVuSans-69" x="152.441406"/>
      <use xlink:href="#DejaVuSans-64" x="180.224609"/>
      <use xlink:href="#DejaVuSans-20" x="243.701172"/>
      <use xlink:href="#DejaVuSans-54" x="275.488281"/>
      <use xlink:href="#DejaVuSans-75" x="321.447266"/>
      <use xlink:href="#DejaVuSans-6d" x="384.826172"/>
      <use xlink:href="#DejaVuSans-6f" x="482.238281"/>
      <use xlink:href="#DejaVuSans-72" x="543.419922"/>
      <use xlink:href="#DejaVuSans-20" x="584.533203"/>
      <use xlink:href="#DejaVuSans-28" x="616.320312"/>
      <use xlink:href="#DejaVuSans-53" x="655.333984"/>
      <use xlink:href="#DejaVuSans-69" x="718.810547"/>
      <use xlink:href="#DejaVuSans-6d" x="746.59375"/>
      <use xlink:href="#DejaVuSans-2e" x="844.005859"/>
      <use xlink:href="#DejaVuSans-29" x="875.792969"/>
     </g>
    </g>
    <g id="PathCollection_1">
     <defs>
      <path id="m91d892e1cd" d="M 0 4.472136 
C 1.186024 4.472136 2.323632 4.000923 3.162278 3.162278 
C 4.000923 2.323632 4.472136 1.186024 4.472136 0 
C 4.472136 -1.186024 4.000923 -2.323632 3.162278 -3.162278 
C 2.323632 -4.000923 1.186024 -4.472136 0 -4.472136 
C -1.186024 -4.472136 -2.323632 -4.000923 -3.162278 -3.162278 
C -4.000923 -2.323632 -4.472136 -1.186024 -4.472136 0 
C -4.472136 1.186024 -4.000923 2.323632 -3.162278 3.162278 
C -2.323632 4.000923 -1.186024 4.472136 0 4.472136 
z
" style="stroke: #000080; stroke-width: 1.5"/>
     </defs>
     <g>
      <use xlink:href="#m91d892e1cd" x="353.04625" y="412.214547" style="fill: #add8e6; stroke: #000080; stroke-width: 1.5"/>
     </g>
    </g>
    <g id="text_21">
     <!-- Sim. data -->
     <g transform="translate(385.44625 416.939547) scale(0.18 -0.18)">
      <use xlink:href="#DejaVuSans-53"/>
      <use xlink:href="#DejaVuSans-69" x="63.476562"/>
      <use xlink:href="#DejaVuSans-6d" x="91.259766"/>
      <use xlink:href="#DejaVuSans-2e" x="188.671875"/>
      <use xlink:href="#DejaVuSans-20" x="220.458984"/>
      <use xlink:href="#DejaVuSans-64" x="252.246094"/>
      <use xlink:href="#DejaVuSans-61" x="315.722656"/>
      <use xlink:href="#DejaVuSans-74" x="377.001953"/>
      <use xlink:href="#DejaVuSans-61" x="416.210938"/>
     </g>
    </g>
   </g>
   <g id="PathCollection_2">
    <g clip-path="url(#p1349593435)">
     <use xlink:href="#m91d892e1cd" x="58.274063" y="425.768594" style="fill: #add8e6; stroke: #000080; stroke-width: 1.5"/>
     <use xlink:href="#m91d892e1cd" x="77.620269" y="351.143077" style="fill: #add8e6; stroke: #000080; stroke-width: 1.5"/>
     <use xlink:href="#m91d892e1cd" x="96.966476" y="285.654995" style="fill: #add8e6; stroke: #000080; stroke-width: 1.5"/>
     <use xlink:href="#m91d892e1cd" x="116.312683" y="249.212504" style="fill: #add8e6; stroke: #000080; stroke-width: 1.5"/>
     <use xlink:href="#m91d892e1cd" x="120.61184" y="238.833969" style="fill: #add8e6; stroke: #000080; stroke-width: 1.5"/>
     <use xlink:href="#m91d892e1cd" x="135.65889" y="215.798482" style="fill: #add8e6; stroke: #000080; stroke-width: 1.5"/>
     <use xlink:href="#m91d892e1cd" x="155.005097" y="198.322335" style="fill: #add8e6; stroke: #000080; stroke-width: 1.5"/>
     <use xlink:href="#m91d892e1cd" x="174.351304" y="187.181834" style="fill: #add8e6; stroke: #000080; stroke-width: 1.5"/>
     <use xlink:href="#m91d892e1cd" x="182.949618" y="178.322311" style="fill: #add8e6; stroke: #000080; stroke-width: 1.5"/>
     <use xlink:href="#m91d892e1cd" x="193.697511" y="170.862056" style="fill: #add8e6; stroke: #000080; stroke-width: 1.5"/>
     <use xlink:href="#m91d892e1cd" x="213.043718" y="163.93275" style="fill: #add8e6; stroke: #000080; stroke-width: 1.5"/>
     <use xlink:href="#m91d892e1cd" x="251.736131" y="152.430211" style="fill: #add8e6; stroke: #000080; stroke-width: 1.5"/>
     <use xlink:href="#m91d892e1cd" x="290.428545" y="141.446822" style="fill: #add8e6; stroke: #000080; stroke-width: 1.5"/>
     <use xlink:href="#m91d892e1cd" x="307.625174" y="136.040864" style="fill: #add8e6; stroke: #000080; stroke-width: 1.5"/>
     <use xlink:href="#m91d892e1cd" x="329.120959" y="134.97604" style="fill: #add8e6; stroke: #000080; stroke-width: 1.5"/>
     <use xlink:href="#m91d892e1cd" x="367.813373" y="129.94957" style="fill: #add8e6; stroke: #000080; stroke-width: 1.5"/>
     <use xlink:href="#m91d892e1cd" x="387.15958" y="127.598345" style="fill: #add8e6; stroke: #000080; stroke-width: 1.5"/>
     <use xlink:href="#m91d892e1cd" x="406.505787" y="125.719484" style="fill: #add8e6; stroke: #000080; stroke-width: 1.5"/>
     <use xlink:href="#m91d892e1cd" x="425.851994" y="123.590823" style="fill: #add8e6; stroke: #000080; stroke-width: 1.5"/>
     <use xlink:href="#m91d892e1cd" x="432.300729" y="122.378448" style="fill: #add8e6; stroke: #000080; stroke-width: 1.5"/>
     <use xlink:href="#m91d892e1cd" x="445.1982" y="122.06291" style="fill: #add8e6; stroke: #000080; stroke-width: 1.5"/>
     <use xlink:href="#m91d892e1cd" x="464.544407" y="120.897755" style="fill: #add8e6; stroke: #000080; stroke-width: 1.5"/>
     <use xlink:href="#m91d892e1cd" x="483.890614" y="119.975569" style="fill: #add8e6; stroke: #000080; stroke-width: 1.5"/>
     <use xlink:href="#m91d892e1cd" x="494.638507" y="118.943967" style="fill: #add8e6; stroke: #000080; stroke-width: 1.5"/>
     <use xlink:href="#m91d892e1cd" x="503.236821" y="118.559867" style="fill: #add8e6; stroke: #000080; stroke-width: 1.5"/>
     <use xlink:href="#m91d892e1cd" x="522.583028" y="117.880392" style="fill: #add8e6; stroke: #000080; stroke-width: 1.5"/>
     <use xlink:href="#m91d892e1cd" x="541.929235" y="116.335715" style="fill: #add8e6; stroke: #000080; stroke-width: 1.5"/>
     <use xlink:href="#m91d892e1cd" x="556.976285" y="116.541492" style="fill: #add8e6; stroke: #000080; stroke-width: 1.5"/>
     <use xlink:href="#m91d892e1cd" x="561.275442" y="116.149524" style="fill: #add8e6; stroke: #000080; stroke-width: 1.5"/>
    </g>
   </g>
  </g>
 </g>
 <defs>
  <clipPath id="p1349593435">
   <rect x="58.274063" y="12.138984" width="561.04" height="424.744"/>
  </clipPath>
 </defs>
</svg>
